<?xml version="1.0" encoding="UTF-8" standalone="no"?>
<svg
   xmlns:dc="http://purl.org/dc/elements/1.1/"
   xmlns:cc="http://creativecommons.org/ns#"
   xmlns:rdf="http://www.w3.org/1999/02/22-rdf-syntax-ns#"
   xmlns:svg="http://www.w3.org/2000/svg"
   xmlns="http://www.w3.org/2000/svg"
   viewBox="0 0 558.66669 358.66666"
   height="358.66666"
   width="558.66669"
   id="svg10"
   version="1.1">
  <metadata
     id="metadata16">
    <rdf:RDF>
      <cc:Work
         rdf:about="">
        <dc:format>image/svg+xml</dc:format>
        <dc:type
           rdf:resource="http://purl.org/dc/dcmitype/StillImage" />
        <dc:title></dc:title>
      </cc:Work>
    </rdf:RDF>
  </metadata>
  <defs
     id="defs14" />
  <path
     id="path20"
     d="m 338.33335,335.11695 c 2.1307,-0.85976 2.18766,-9.38773 0.0675,-10.09449 -1.0003,-0.33343 -0.75062,-0.85872 0.66667,-1.40259 1.92005,-0.7368 2.26592,0.0229 2.26592,4.97752 0,3.43007 0.68895,6.12504 1.66667,6.51956 0.91666,0.36988 -0.13334,0.67252 -2.33334,0.67252 -2.2,0 -3.25,-0.30264 -2.33333,-0.67252 z m -14.97454,-7.53285 c -0.27178,-0.87125 -0.73478,-3.53411 -1.02889,-5.91744 -0.43221,-3.50264 -0.0677,-4.33333 1.90101,-4.33333 1.89483,0 2.43575,1.03636 2.43575,4.66666 0,2.56667 0.66564,4.66667 1.47921,4.66667 0.9054,0 1.26787,-1.81025 0.9344,-4.66667 -0.43377,-3.71549 -0.0832,-4.66666 1.71987,-4.66666 1.71535,0 2.37809,1.41841 2.73227,5.84762 l 0.46758,5.84762 -5.07353,0.0699 c -2.80779,0.0387 -5.2942,-0.63761 -5.56767,-1.51429 z m 55.30787,0.94171 c 0,-0.44415 1.5,-2.59018 3.33334,-4.76898 1.83333,-2.17878 3.33333,-4.78 3.33333,-5.78045 0,-2.81989 -2.55428,-3.72847 -4.94191,-1.75784 -1.81765,1.5002 -2.05902,1.48073 -1.52889,-0.12333 0.91867,-2.77963 4.4448,-4.64636 6.95624,-3.68263 3.07985,1.18185 2.7066,6.55985 -0.76128,10.96853 l -2.94249,3.74079 2.94249,-0.76948 c 2.00437,-0.52412 2.94251,-0.1716 2.94251,1.10573 0,1.25416 -1.54548,1.87518 -4.66667,1.87518 -2.56667,0 -4.66667,-0.36339 -4.66667,-0.80752 z m -24.62107,-4.93578 c -4.57297,-6.97924 -3.7303,-19.47909 1.60558,-23.81672 1.91778,-1.55898 2.04965,-1.45101 1.09108,0.89335 -1.93387,4.72957 -2.4351,16.38372 -0.89468,20.80253 1.88838,5.41704 1.0242,6.43415 -1.80198,2.12084 z m 41.35522,1.07663 c 1.5278,-3.30311 1.62601,-20.37761 0.13804,-24 -0.94467,-2.29972 -0.71895,-2.24076 1.64031,0.42848 5.3175,6.01616 4.88321,19.81652 -0.76827,24.41335 -2.00173,1.62817 -2.11059,1.53745 -1.01008,-0.84183 z m 69.66586,-2.26667 c 2.03013,-2.03013 2.11564,-11.73333 0.10346,-11.73333 -1.03401,0 -0.98354,-0.61819 0.16326,-2 2.92765,-3.5276 4,-2.16928 4,5.06667 0,3.88666 0.72,7.78666 1.6,8.66666 1.24444,1.24444 0.59258,1.6 -2.93334,1.6 -3.52592,0 -4.17777,-0.35556 -2.93333,-1.6 z m 41.33333,0 c 2.03013,-2.03013 2.11564,-11.73333 0.10347,-11.73333 -1.03402,0 -0.98355,-0.61819 0.16325,-2 2.92765,-3.5276 4,-2.16928 4,5.06667 0,3.88666 0.72,7.78666 1.6,8.66666 1.24444,1.24444 0.59259,1.6 -2.93333,1.6 -3.52592,0 -4.17778,-0.35556 -2.93334,-1.6 z m -198.73334,-1.9497 c 1.12068,-0.4522 1.66667,-3.87564 1.66667,-10.4503 0,-6.57465 -0.54599,-9.99809 -1.66667,-10.45029 -0.91667,-0.36988 1.22277,-0.71988 4.75432,-0.77777 8.01016,-0.13134 11.57901,1.68554 11.57901,5.89473 0,3.46135 -3.34778,6 -7.91234,6 -2.24611,0 -2.75432,0.84056 -2.75432,4.55556 0,2.50555 0.75,4.85819 1.66666,5.22807 0.91667,0.36988 -0.73333,0.67252 -3.66666,0.67252 -2.93334,0 -4.58334,-0.30264 -3.66667,-0.67252 z m 11.44644,-14.0052 c 1.01411,-1.61047 0.91683,-2.80247 -0.35368,-4.33334 -3.0606,-3.68778 -5.42609,-2.53136 -5.42609,2.65267 0,3.7052 0.48698,4.6686 2.19042,4.33333 1.20474,-0.23709 2.81994,-1.4308 3.58935,-2.65266 z m 44.53834,6.88824 -3.45183,-8 h 3.97888 c 2.18839,0 3.62512,0.57241 3.19273,1.27201 -0.43237,0.69961 -0.38065,2.8876 0.11494,4.8622 l 0.90108,3.5902 1.86553,-3.56049 c 1.02604,-1.95827 1.50349,-4.14626 1.06101,-4.8622 -0.44246,-0.71595 0.34931,-1.30172 1.75951,-1.30172 2.44585,0 2.41875,0.28693 -0.58797,6.22597 -1.73359,3.42428 -3.15199,7.02428 -3.15199,8 0,3.97557 -2.42819,1.31487 -5.68189,-6.22597 z m 85.05213,2.33333 c -0.30033,-0.91667 -0.73582,-4.51667 -0.96776,-8 -0.35374,-5.31273 -0.0441,-6.33333 1.92124,-6.33333 1.92716,0 2.34295,1.20044 2.34295,6.76442 0,5.72823 0.35744,6.69415 2.33333,6.30562 1.82875,-0.3596 2.33334,-1.82287 2.33334,-6.76659 0,-4.9852 0.46336,-6.30732 2.20993,-6.30561 2.9354,0.003 4.16564,14.61209 1.32217,15.70097 -0.99068,0.37937 -2.26568,-0.0617 -2.83333,-0.98021 -0.73209,-1.18454 -1.29721,-1.24102 -1.94413,-0.19428 -1.24078,2.00761 -6.04211,1.87112 -6.71774,-0.19099 z m 45.61454,-6.33333 -3.45183,-8 h 3.97888 c 2.18839,0 3.62512,0.57241 3.19273,1.27201 -0.43237,0.69961 -0.38065,2.8876 0.11494,4.8622 l 0.90108,3.5902 1.86553,-3.56049 c 1.02604,-1.95827 1.50349,-4.14626 1.06101,-4.8622 -0.44246,-0.71595 0.34931,-1.30172 1.75951,-1.30172 2.44585,0 2.41875,0.28693 -0.58797,6.22597 -1.73359,3.42428 -3.15199,7.02428 -3.15199,8 0,3.97557 -2.42819,1.31487 -5.68189,-6.22597 z m -20.98478,2.66666 c 0,-0.73333 3.3,-1.33333 7.33334,-1.33333 4.03333,0 7.33333,0.6 7.33333,1.33333 0,0.73334 -3.3,1.33334 -7.33333,1.33334 -4.03334,0 -7.33334,-0.6 -7.33334,-1.33334 z m 0,-5.33333 c 0,-0.73333 3.3,-1.33333 7.33334,-1.33333 4.03333,0 7.33333,0.6 7.33333,1.33333 0,0.73333 -3.3,1.33333 -7.33333,1.33333 -4.03334,0 -7.33334,-0.6 -7.33334,-1.33333 z M 346.66668,292.00617 c 0,-2.63926 -1.10979,-2.66322 -139,-3 L 68.66667,288.66666 68.325588,179 C 68.036075,85.914117 67.701539,69.333332 66.112937,69.333332 c -1.605509,0 -1.606657,-0.995107 -0.0081,-7 1.02492,-3.85 1.870612,-8.95 1.879316,-11.333333 0.01489,-4.060477 0.309727,-4.333333 4.68255,-4.333333 2.566666,0 4.666667,0.6 4.666667,1.333333 0,0.733333 -1.5,1.333333 -3.333334,1.333333 -1.833333,0 -3.323051,0.15 -3.310483,0.333334 0.01253,0.183333 1.152739,4.683333 2.533712,10 2.464863,9.489567 2.464444,9.666666 -0.02285,9.666666 -2.468541,0 -2.533713,2.777948 -2.533713,107.999998 0,59.4 0.303745,108 0.674988,108 0.371244,0 63.71391,-50.43712 140.76146,-112.08249 C 325.5744,82.46304 351.89954,60.818802 350.66279,59.328612 c -1.23889,-1.492786 0.31472,-2.696373 8.23855,-6.382388 5.37096,-2.498468 9.95873,-4.390109 10.19507,-4.203648 0.23632,0.186462 -2.42032,4.009014 -5.90367,8.494562 -3.93449,5.066509 -6.80615,7.682739 -7.58162,6.907271 C 354.83563,63.368941 302.5296,104.32753 217.51474,172.2817 142.2483,232.44376 79.483337,282.79213 78.037041,284.16695 c -2.571978,2.44491 0.343945,2.49971 133.000009,2.49971 119.67078,0 135.62963,-0.23533 135.62963,-2 0,-1.1 0.15,-1.99288 0.33333,-1.98417 0.18334,0.009 3.63334,0.90158 7.66667,1.98417 5.54216,1.48757 15.55643,1.97221 41,1.98417 21.545,0.0107 33.66667,0.4959 33.66667,1.34916 0,0.85 -11.23745,1.34162 -31,1.35619 -26.48999,0.0195 -32.45484,0.40416 -41,2.64381 -5.5,1.44154 -10.15,2.63126 -10.33334,2.64382 -0.18333,0.012 -0.33333,-1.17438 -0.33333,-2.63764 z m 140.00001,0.0192 c 0,-2.61078 -0.80502,-2.69204 -26.66667,-2.69204 -16.88889,0 -26.66667,-0.4889 -26.66667,-1.33334 0,-0.84444 9.77778,-1.33333 26.66667,-1.33333 23.60388,0 26.66667,-0.24609 26.66667,-2.14265 0,-1.17846 0.75,-1.86014 1.66666,-1.51483 0.91667,0.34531 6.39846,1.73848 12.18174,3.09595 l 10.51506,2.46813 -9.18173,2.31817 c -5.04995,1.275 -10.53173,2.65744 -12.18173,3.07211 -2.36948,0.59547 -3,0.18813 -3,-1.93815 z M 368.00002,279.99999 c 0,-2.2 0.6,-4 1.33333,-4 0.73333,0 1.33333,1.8 1.33333,4 0,2.2 -0.6,4 -1.33333,4 -0.73333,0 -1.33333,-1.8 -1.33333,-4 z m 0,-15.99999 c 0,-2.2 0.6,-4 1.33333,-4 0.73333,0 1.33333,1.8 1.33333,4 0,2.2 -0.6,4 -1.33333,4 -0.73333,0 -1.33333,-1.8 -1.33333,-4 z m 0,-16 c 0,-2.2 0.6,-4 1.33333,-4 0.73333,0 1.33333,1.8 1.33333,4 0,2.2 -0.6,4 -1.33333,4 -0.73333,0 -1.33333,-1.8 -1.33333,-4 z m 0,-16 c 0,-2.2 0.6,-4 1.33333,-4 0.73333,0 1.33333,1.8 1.33333,4 0,2.2 -0.6,4 -1.33333,4 -0.73333,0 -1.33333,-1.8 -1.33333,-4 z m 0,-16 c 0,-2.2 0.6,-4 1.33333,-4 0.73333,0 1.33333,1.8 1.33333,4 0,2.2 -0.6,4 -1.33333,4 -0.73333,0 -1.33333,-1.8 -1.33333,-4 z m 0,-16 c 0,-2.2 0.6,-4 1.33333,-4 0.73333,0 1.33333,1.8 1.33333,4 0,2.2 -0.6,4 -1.33333,4 -0.73333,0 -1.33333,-1.8 -1.33333,-4 z m 0,-16 c 0,-2.2 0.6,-4 1.33333,-4 0.73333,0 1.33333,1.8 1.33333,4 0,2.2 -0.6,4 -1.33333,4 -0.73333,0 -1.33333,-1.8 -1.33333,-4 z m 0,-16 c 0,-2.2 0.6,-4 1.33333,-4 0.73333,0 1.33333,1.8 1.33333,4 0,2.2 -0.6,4 -1.33333,4 -0.73333,0 -1.33333,-1.8 -1.33333,-4 z m 0,-16 c 0,-2.2 0.6,-4 1.33333,-4 0.73333,0 1.33333,1.8 1.33333,4 0,2.2 -0.6,4 -1.33333,4 -0.73333,0 -1.33333,-1.8 -1.33333,-4 z m 0,-16 c 0,-2.2 0.6,-4 1.33333,-4 0.73333,0 1.33333,1.8 1.33333,4 0,2.2 -0.6,4 -1.33333,4 -0.73333,0 -1.33333,-1.8 -1.33333,-4 z m 0,-16 c 0,-2.2 0.6,-4 1.33333,-4 0.73333,0 1.33333,1.8 1.33333,4 0,2.2 -0.6,4 -1.33333,4 -0.73333,0 -1.33333,-1.8 -1.33333,-4 z m 0,-16 c 0,-2.2 0.6,-4.000002 1.33333,-4.000002 0.73333,0 1.33333,1.800002 1.33333,4.000002 0,2.2 -0.6,4 -1.33333,4 -0.73333,0 -1.33333,-1.8 -1.33333,-4 z m 0,-16.000002 c 0,-2.2 0.6,-4 1.33333,-4 0.73333,0 1.33333,1.8 1.33333,4 0,2.2 -0.6,4 -1.33333,4 -0.73333,0 -1.33333,-1.8 -1.33333,-4 z m 0,-15.999999 c 0,-2.2 0.6,-4 1.33333,-4 0.73333,0 1.33333,1.8 1.33333,4 0,2.2 -0.6,4 -1.33333,4 -0.73333,0 -1.33333,-1.8 -1.33333,-4 z m 30.66666,1.859141 c 0,-0.444139 1.5,-2.590175 3.33334,-4.768967 1.83333,-2.178793 3.33333,-4.779997 3.33333,-5.780452 0,-2.819901 -2.55428,-3.728463 -4.94191,-1.757842 -1.81765,1.5002 -2.05902,1.480734 -1.52889,-0.123293 0.91867,-2.779626 4.4448,-4.646362 6.95624,-3.682634 3.07985,1.181854 2.7066,6.559855 -0.76128,10.968539 l -2.94249,3.740786 2.94249,-0.769481 c 2.00437,-0.524151 2.94251,-0.171633 2.94251,1.105696 0,1.254167 -1.54548,1.875173 -4.66667,1.875173 -2.56667,0 -4.66667,-0.363386 -4.66667,-0.807525 z m -12.34856,-15.192474 -3.45182,-8 h 3.97888 c 2.18838,0 3.62512,0.572406 3.19273,1.272014 -0.43237,0.69961 -0.38065,2.8876 0.11493,4.862204 l 0.90108,3.59019 1.86554,-3.560488 c 1.02604,-1.958268 1.50349,-4.14626 1.06101,-4.862204 -0.44247,-0.715944 0.34931,-1.301716 1.75951,-1.301716 2.44585,0 2.41874,0.28693 -0.58798,6.22597 -1.73358,3.424284 -3.15198,7.024284 -3.15198,8 0,3.975573 -2.42819,1.314869 -5.6819,-6.22597 z m -18.3181,-2.666667 c 0,-2.2 0.6,-4 1.33333,-4 0.73333,0 1.33333,1.8 1.33333,4 0,2.2 -0.6,4 -1.33333,4 -0.73333,0 -1.33333,-1.8 -1.33333,-4 z M 49.333335,56.525807 c 0,-0.444139 1.5,-2.590175 3.333334,-4.768967 1.833333,-2.178793 3.333333,-4.779997 3.333333,-5.780452 0,-2.819901 -2.554282,-3.728463 -4.941901,-1.757842 -1.817654,1.5002 -2.059035,1.480734 -1.528902,-0.123293 0.91867,-2.779626 4.444806,-4.646362 6.956239,-3.682634 3.07986,1.181854 2.7066,6.559855 -0.761272,10.968539 l -2.942502,3.740786 2.942502,-0.769481 c 2.004371,-0.524151 2.942503,-0.171633 2.942503,1.105696 0,1.254167 -1.545473,1.875173 -4.666667,1.875173 -2.566667,0 -4.666667,-0.363386 -4.666667,-0.807525 z m -17.96309,-6.192475 c -0.300334,-0.916666 -0.735826,-4.516666 -0.967761,-7.999999 -0.353743,-5.312739 -0.04414,-6.333334 1.921243,-6.333334 1.927156,0 2.342941,1.200438 2.342941,6.764432 0,5.728217 0.357433,6.694148 2.333334,6.305612 1.828753,-0.359603 2.333333,-1.822869 2.333333,-6.766592 0,-4.985201 0.463363,-6.307317 2.209933,-6.30561 2.935405,0.0029 4.165637,14.612097 1.322167,15.700974 -0.990677,0.379369 -2.265677,-0.06172 -2.833333,-0.980209 -0.73209,-1.184547 -1.297207,-1.241023 -1.944123,-0.194291 -1.240779,2.007623 -6.04211,1.871123 -6.717734,-0.190983 z m 53.963092,-2.333333 c 0,-0.733333 1.8,-1.333333 4,-1.333333 2.2,0 4,0.6 4,1.333333 0,0.733333 -1.8,1.333333 -4,1.333333 -2.2,0 -4,-0.6 -4,-1.333333 z m 16.000003,0 c 0,-0.733333 1.8,-1.333333 4,-1.333333 2.2,0 4,0.6 4,1.333333 0,0.733333 -1.8,1.333333 -4,1.333333 -2.2,0 -4,-0.6 -4,-1.333333 z m 16,0 c 0,-0.733333 1.8,-1.333333 4,-1.333333 2.2,0 4,0.6 4,1.333333 0,0.733333 -1.8,1.333333 -4,1.333333 -2.2,0 -4,-0.6 -4,-1.333333 z m 16,0 c 0,-0.733333 1.8,-1.333333 4,-1.333333 2.2,0 4,0.6 4,1.333333 0,0.733333 -1.8,1.333333 -4,1.333333 -2.2,0 -4,-0.6 -4,-1.333333 z m 16,0 c 0,-0.733333 1.8,-1.333333 4,-1.333333 2.2,0 4,0.6 4,1.333333 0,0.733333 -1.8,1.333333 -4,1.333333 -2.2,0 -4,-0.6 -4,-1.333333 z m 16,0 c 0,-0.733333 1.8,-1.333333 4,-1.333333 2.2,0 4,0.6 4,1.333333 0,0.733333 -1.8,1.333333 -4,1.333333 -2.2,0 -4,-0.6 -4,-1.333333 z m 16,0 c 0,-0.733333 1.8,-1.333333 4,-1.333333 2.2,0 4,0.6 4,1.333333 0,0.733333 -1.8,1.333333 -4,1.333333 -2.2,0 -4,-0.6 -4,-1.333333 z m 16,0 c 0,-0.733333 1.8,-1.333333 4,-1.333333 2.2,0 4,0.6 4,1.333333 0,0.733333 -1.8,1.333333 -4,1.333333 -2.2,0 -4,-0.6 -4,-1.333333 z m 16,0 c 0,-0.733333 1.8,-1.333333 4,-1.333333 2.2,0 4,0.6 4,1.333333 0,0.733333 -1.8,1.333333 -4,1.333333 -2.2,0 -4,-0.6 -4,-1.333333 z m 16,0 c 0,-0.733333 1.8,-1.333333 4,-1.333333 2.2,0 4,0.6 4,1.333333 0,0.733333 -1.8,1.333333 -4,1.333333 -2.2,0 -4,-0.6 -4,-1.333333 z m 16,0 c 0,-0.733333 1.8,-1.333333 4,-1.333333 2.2,0 4,0.6 4,1.333333 0,0.733333 -1.8,1.333333 -4,1.333333 -2.2,0 -4,-0.6 -4,-1.333333 z m 16,0 c 0,-0.733333 1.8,-1.333333 4,-1.333333 2.2,0 4,0.6 4,1.333333 0,0.733333 -1.8,1.333333 -4,1.333333 -2.2,0 -4,-0.6 -4,-1.333333 z m 16,0 c 0,-0.733333 1.8,-1.333333 4.00001,-1.333333 2.2,0 4,0.6 4,1.333333 0,0.733333 -1.8,1.333333 -4,1.333333 -2.20001,0 -4.00001,-0.6 -4.00001,-1.333333 z m 16.00001,0 c 0,-0.733333 1.8,-1.333333 4,-1.333333 2.2,0 4,0.6 4,1.333333 0,0.733333 -1.8,1.333333 -4,1.333333 -2.2,0 -4,-0.6 -4,-1.333333 z m 16,0 c 0,-0.733333 1.8,-1.333333 4,-1.333333 2.2,0 4,0.6 4,1.333333 0,0.733333 -1.8,1.333333 -4,1.333333 -2.2,0 -4,-0.6 -4,-1.333333 z m 16,0 c 0,-0.733333 1.8,-1.333333 4,-1.333333 2.2,0 4,0.6 4,1.333333 0,0.733333 -1.8,1.333333 -4,1.333333 -2.2,0 -4,-0.6 -4,-1.333333 z m 16,0 c 0,-0.733333 1.8,-1.333333 4,-1.333333 2.2,0 4,0.6 4,1.333333 0,0.733333 -1.8,1.333333 -4,1.333333 -2.2,0 -4,-0.6 -4,-1.333333 z m 16,0 c 0,-0.733333 1.8,-1.333333 4,-1.333333 2.2,0 4,0.6 4,1.333333 0,0.733333 -1.8,1.333333 -4,1.333333 -2.2,0 -4,-0.6 -4,-1.333333 z"
     style="fill:#000000;stroke-width:1.33333337" />
</svg>
