<?xml version="1.0" encoding="UTF-8" standalone="no"?>
<svg
   xmlns:dc="http://purl.org/dc/elements/1.1/"
   xmlns:cc="http://creativecommons.org/ns#"
   xmlns:rdf="http://www.w3.org/1999/02/22-rdf-syntax-ns#"
   xmlns:svg="http://www.w3.org/2000/svg"
   xmlns="http://www.w3.org/2000/svg"
   viewBox="0 0 358.66666 240"
   height="240"
   width="358.66666"
   id="svg3713"
   version="1.1">
  <metadata
     id="metadata3719">
    <rdf:RDF>
      <cc:Work
         rdf:about="">
        <dc:format>image/svg+xml</dc:format>
        <dc:type
           rdf:resource="http://purl.org/dc/dcmitype/StillImage" />
        <dc:title></dc:title>
      </cc:Work>
    </rdf:RDF>
  </metadata>
  <defs
     id="defs3717" />
  <path
     id="path3741"
     d="m 213.50631,221.12208 c -0.49272,-0.79724 -0.20315,-2.14221 0.64349,-2.98885 1.16357,-1.16357 1.83377,-1.06296 2.74544,0.41213 1.03065,1.66766 1.33187,1.62371 2.07089,-0.30218 0.84204,-2.1943 -2.57401,-13.3301 -5.11421,-16.67159 -0.94807,-1.24713 -0.22956,-1.66667 2.85441,-1.66667 2.85844,0 3.91519,0.53742 3.44846,1.75371 -0.37014,0.96455 -0.11307,3.21455 0.5712,5 l 1.24416,3.24629 1.52232,-3.88937 c 1.1903,-3.04111 1.14754,-4.12715 -0.19603,-4.97959 -1.12221,-0.712 -0.38967,-1.09729 2.11159,-1.11062 3.07742,-0.0164 3.53449,0.33557 2.32628,1.79138 -0.82702,0.99648 -2.69731,5.28118 -4.1562,9.52154 -1.4589,4.24036 -3.32919,8.52505 -4.1562,9.52153 -1.80914,2.17988 -4.68348,2.35591 -5.9156,0.36229 z m 113.33333,-8 c -0.49272,-0.79724 -0.20315,-2.14221 0.64349,-2.98885 1.16357,-1.16357 1.83377,-1.06296 2.74544,0.41213 1.03065,1.66766 1.33187,1.62371 2.07089,-0.30218 0.84204,-2.1943 -2.57401,-13.3301 -5.11421,-16.67159 -0.94807,-1.24713 -0.22956,-1.66667 2.85441,-1.66667 2.85844,0 3.91519,0.53742 3.44846,1.75371 -0.37014,0.96455 -0.11307,3.21455 0.5712,5 l 1.24416,3.24629 1.52232,-3.88937 c 1.1903,-3.04111 1.14754,-4.12715 -0.19603,-4.97959 -1.12221,-0.712 -0.38967,-1.09729 2.11159,-1.11062 3.07742,-0.0164 3.53449,0.33557 2.32628,1.79138 -0.82702,0.99648 -2.69731,5.28118 -4.1562,9.52154 -1.4589,4.24036 -3.32919,8.52505 -4.1562,9.52153 -1.80914,2.17988 -4.68348,2.35591 -5.9156,0.36229 z m -90.54927,-2.96045 c -4.57297,-6.97924 -3.7303,-19.47909 1.60558,-23.81672 1.91778,-1.55899 2.04965,-1.45101 1.09108,0.89335 -1.93387,4.72957 -2.4351,16.38372 -0.89468,20.80253 1.88838,5.41704 1.0242,6.43415 -1.80198,2.12084 z m 25.35521,1.07663 c 1.5278,-3.30311 1.62602,-20.37762 0.13804,-24 -0.94466,-2.29972 -0.71894,-2.24076 1.64031,0.42848 5.31751,6.01616 4.88321,19.81652 -0.76827,24.41334 -2.00173,1.62818 -2.11058,1.53746 -1.01008,-0.84182 z m -63.73414,-4.21638 c 1.12068,-0.4522 1.66667,-3.87564 1.66667,-10.45029 0,-6.57465 -0.54599,-9.99809 -1.66667,-10.45029 -0.91667,-0.36988 1.22277,-0.71988 4.75432,-0.77778 8.01016,-0.13133 11.57901,1.68555 11.57901,5.89474 0,3.46134 -3.34778,6 -7.91234,6 -2.24611,0 -2.75432,0.84056 -2.75432,4.55556 0,2.50554 0.75,4.85818 1.66666,5.22806 0.91667,0.36988 -0.73333,0.67252 -3.66666,0.67252 -2.93334,0 -4.58334,-0.30264 -3.66667,-0.67252 z m 11.44644,-14.0052 c 1.01411,-1.61046 0.91683,-2.80246 -0.35368,-4.33333 -3.0606,-3.68779 -5.42609,-2.53136 -5.42609,2.65267 0,3.7052 0.48698,4.6686 2.19042,4.33333 1.20474,-0.23709 2.81994,-1.4308 3.58935,-2.65267 z m 35.76439,10.88824 2.95733,-4 -2.95733,-4 -2.95732,-4 h 4.0399 c 2.22196,0 3.96887,0.45 3.88203,1 -0.55725,3.52927 0.21403,4.61327 2.14321,3.01219 1.09192,-0.90623 1.65652,-2.17969 1.25464,-2.82993 -0.40186,-0.65024 0.60932,-1.18226 2.24711,-1.18226 h 2.97777 l -2.89909,3.08594 c -3.56563,3.79544 -3.57233,4.22358 -0.14163,9.04157 l 2.75747,3.87249 h -4.16948 c -2.44013,0 -3.82771,-0.55301 -3.34544,-1.33333 1.43581,-2.32319 -0.69239,-4.30517 -2.77069,-2.58033 -1.02664,0.85202 -1.53782,2.08117 -1.13594,2.73141 0.40187,0.65024 -0.5227,1.18225 -2.0546,1.18225 h -2.78526 z m 69.1225,-21.30793 c 0,-2.68336 -0.45063,-2.69207 -139.33333,-2.69207 -80.871284,0 -139.333334,-0.49958 -139.333334,-1.19068 0,-0.65488 0.86134,-1.52121 1.91409,-1.92518 1.05276,-0.40399 42.18403,-32.95396 91.402844,-72.33328 58.19028,-46.55728 89.24655,-72.229907 88.79627,-73.403333 -0.43664,-1.137855 1.38497,-2.8559 4.93049,-4.650159 3.09264,-1.565073 7.2156,-3.967237 9.16213,-5.338143 4.69834,-3.308932 5.12751,-3.182758 5.12751,1.507447 0,2.2 -0.6,4 -1.33333,4 -0.73334,0 -1.33334,-0.721337 -1.33334,-1.602972 0,-0.881636 -2.18633,1.52018 -4.85852,5.337368 -3.81404,5.448308 -5.24293,6.621305 -6.64666,5.456311 -1.40068,-1.162463 -21.00519,13.888444 -90.47482,69.459961 -48.777664,39.0192 -88.686664,71.1852 -88.686664,71.48 0,0.2948 13.8,0.536 30.66666,0.536 h 30.666674 v -3.83236 c 0,-6.4818 -3.75796,-14.93703 -10.018974,-22.54223 -5.71508,-6.94205 -7.16132,-9.7148 -4.98103,-9.54968 0.55,0.0416 3.86101,3.59743 7.3578,7.90172 6.837524,8.41647 10.308874,16.33765 10.308874,23.52352 v 4.49903 h 103.33333 c 94.02058,0 103.33333,-0.19311 103.33333,-2.14266 0,-1.17845 0.75,-1.86013 1.66667,-1.51482 0.91666,0.3453 6.39845,1.73848 12.18173,3.09594 l 10.51507,2.46814 -9.18174,2.31817 c -5.04994,1.275 -10.53173,2.65744 -12.18173,3.07211 -2.36948,0.59546 -3,0.18813 -3,-1.93815 z M 19.059056,176.52872 c -6.90513,-6.90512 -1.88221,-22.9965 6.20914,-19.89156 7.24592,2.78052 5.18792,21.93443 -2.35676,21.93443 -0.99524,0 -2.72881,-0.91929 -3.85238,-2.04287 z m 5.58781,-10.09256 c -0.227,-4.81626 -0.9827,-8.39276 -1.73543,-8.21324 -1.49248,0.35595 -2.57848,14.25132 -1.36165,17.42234 1.68737,4.39721 3.48626,-0.95175 3.09708,-9.2091 z m 209.597904,0.13543 c 0,-2.2 0.6,-4 1.33334,-4 0.73333,0 1.33333,1.8 1.33333,4 0,2.2 -0.6,4 -1.33333,4 -0.73334,0 -1.33334,-1.8 -1.33334,-4 z M 118.98705,155.60824 c -4.43885,-6.33733 -1.32444,-19.70332 4.59106,-19.70332 3.6563,0 6.66666,5.1176 6.66666,11.33334 0,6.21573 -3.01036,11.33333 -6.66666,11.33333 -1.3835,0 -3.44948,-1.33351 -4.59106,-2.96335 z m 7.21082,-0.949 c 2.49712,-4.66592 1.6871,-6.75432 -2.61976,-6.75432 -2.74131,0 -4,0.65694 -4,2.08766 0,2.79594 2.45649,7.24568 4,7.24568 0.68173,0 1.86062,-1.16056 2.61976,-2.57902 z m 1.38024,-10.49948 c 0,-1.3265 -0.9,-3.5765 -2,-5 -1.97978,-2.56201 -2.02022,-2.56201 -4,0 -3.37931,4.37311 -2.55934,7.41183 2,7.41183 2.97022,0 4,-0.62091 4,-2.41183 z m 106.66666,6.41183 c 0,-2.2 0.6,-4 1.33334,-4 0.73333,0 1.33333,1.8 1.33333,4 0,2.2 -0.6,4 -1.33333,4 -0.73334,0 -1.33334,-1.8 -1.33334,-4 z m 0,-16 c 0,-2.2 0.6,-4 1.33334,-4 0.73333,0 1.33333,1.8 1.33333,4 0,2.2 -0.6,4 -1.33333,4 -0.73334,0 -1.33334,-1.8 -1.33334,-4 z m 0,-16 c 0,-2.2 0.6,-4 1.33334,-4 0.73333,0 1.33333,1.8 1.33333,4 0,2.2 -0.6,4 -1.33333,4 -0.73334,0 -1.33334,-1.8 -1.33334,-4 z m 0,-16 c 0,-2.2 0.6,-4.000003 1.33334,-4.000003 0.73333,0 1.33333,1.800003 1.33333,4.000003 0,2.2 -0.6,4 -1.33333,4 -0.73334,0 -1.33334,-1.8 -1.33334,-4 z m 0,-16 c 0,-2.199998 0.6,-3.999998 1.33334,-3.999998 0.73333,0 1.33333,1.8 1.33333,3.999998 0,2.2 -0.6,4 -1.33333,4 -0.73334,0 -1.33334,-1.8 -1.33334,-4 z m 0,-15.999998 c 0,-2.2 0.6,-4 1.33334,-4 0.73333,0 1.33333,1.8 1.33333,4 0,2.2 -0.6,4 -1.33333,4 -0.73334,0 -1.33334,-1.8 -1.33334,-4 z m 0,-16 c 0,-2.2 0.6,-4 1.33334,-4 0.73333,0 1.33333,1.8 1.33333,4 0,2.2 -0.6,4 -1.33333,4 -0.73334,0 -1.33334,-1.8 -1.33334,-4 z m 14.8775,0 2.95733,-4 -2.95733,-4 -2.95732,-4 h 4.0399 c 2.22196,0 3.96887,0.45 3.88203,1 -0.55725,3.529261 0.21403,4.613263 2.14321,3.012184 1.09192,-0.906217 1.65652,-2.179685 1.25464,-2.829927 -0.40186,-0.650241 0.60932,-1.182257 2.24711,-1.182257 h 2.97777 l -2.89909,3.085935 c -3.56563,3.795438 -3.57233,4.223584 -0.14163,9.041572 l 2.75747,3.872493 h -4.16948 c -2.44013,0 -3.82771,-0.553019 -3.34544,-1.333333 1.43581,-2.323194 -0.69239,-4.305176 -2.77069,-2.580335 -1.02664,0.852033 -1.53782,2.081169 -1.13594,2.731411 0.40187,0.650241 -0.5227,1.182257 -2.0546,1.182257 h -2.78526 z m -14.8775,-16 c 0,-2.2 0.6,-4 1.33334,-4 0.73333,0 1.33333,1.8 1.33333,4 0,2.2 -0.6,4 -1.33333,4 -0.73334,0 -1.33334,-1.8 -1.33334,-4 z"
     style="fill:#f2f2f2;fill-opacity:1;stroke-width:1.33333337" />
</svg>
