<?xml version="1.0" encoding="UTF-8" standalone="no"?>
<svg
   xmlns:dc="http://purl.org/dc/elements/1.1/"
   xmlns:cc="http://creativecommons.org/ns#"
   xmlns:rdf="http://www.w3.org/1999/02/22-rdf-syntax-ns#"
   xmlns:svg="http://www.w3.org/2000/svg"
   xmlns="http://www.w3.org/2000/svg"
   viewBox="0 0 447 349"
   height="349"
   width="447"
   id="svg10"
   version="1.1">
  <metadata
     id="metadata16">
    <rdf:RDF>
      <cc:Work
         rdf:about="">
        <dc:format>image/svg+xml</dc:format>
        <dc:type
           rdf:resource="http://purl.org/dc/dcmitype/StillImage" />
        <dc:title></dc:title>
      </cc:Work>
    </rdf:RDF>
  </metadata>
  <defs
     id="defs14" />
  <g
     id="g20">
    <path
       id="path26"
       d="m 27.06557,335.98132 c 0.861064,-1.36473 3.731137,-5.98646 6.37794,-10.27052 4.490724,-7.2686 4.929435,-7.68326 6.563877,-6.20411 1.633134,1.47796 2.959281,0.31484 19.622061,-17.20986 9.828803,-10.33722 31.460108,-32.52037 48.069562,-49.29589 L 137.89803,222.5 138.19901,124.74983 138.5,26.999656 l -2.08956,1.72e-4 c -2.05772,1.69e-4 -2.04283,-0.160812 0.97766,-10.56685 1.68697,-5.811862 3.19629,-10.1798002 3.35405,-9.7065294 0.15776,0.4732707 1.34279,5.2284304 2.63342,10.5670214 L 145.72215,27 h -2.36107 C 141.03612,27 141,27.153897 141,37.059017 c 0,6.437575 0.35928,9.836969 0.99795,9.442251 1.29279,-0.798988 7.06183,2.592996 6.35507,3.736552 -0.29602,0.478969 -1.66059,0.135446 -3.03238,-0.763386 -1.37179,-0.898832 -2.68267,-1.445742 -2.91305,-1.215356 -0.23039,0.230387 -0.30384,38.739645 -0.16324,85.576132 l 0.25565,85.15724 53.41639,-48.35131 c 35.74239,-32.35321 53.53131,-49.10434 53.76372,-50.62723 0.19103,-1.25176 -0.1307,-2.85191 -0.71495,-3.55589 -0.68152,-0.82118 -0.71121,-1.49694 -0.0828,-1.8853 0.53871,-0.33294 1.25149,-0.1652 1.58396,0.37276 0.37097,0.60023 1.49817,0.63833 2.91771,0.0986 3.61849,-1.37575 7.05189,0.83831 7.43422,4.79403 0.42364,4.3831 -1.26761,6.16187 -5.85868,6.16187 -3.60003,0 -6.33691,2.29782 -53.12756,44.60475 -27.13259,24.53261 -50.67334,45.90761 -52.31276,47.5 L 146.53846,221 h 53.23077 C 252.33333,221 253,220.975 253,219 c 0,-1.1 0.45,-2 1,-2 0.55,0 1,0.9 1,2 0,1.94667 0.66667,2 25,2 16,0 25,0.36 25,1 0,0.62366 5.83333,1 15.5,1 15.00174,0 15.5,-0.0665 15.5,-2.06739 0,-1.50488 0.47615,-1.92268 1.75,-1.53555 0.9625,0.29251 6.025,1.46127 11.25,2.59724 5.225,1.13597 9.90588,2.18726 10.40195,2.3362 0.49608,0.14894 -4.00291,1.31741 -9.99774,2.5966 -5.99483,1.27919 -11.46321,2.54205 -12.15195,2.80634 C 336.44659,230.0426 336,229.28424 336,227.60699 V 225 h -14.8 c -10.17778,0 -15.17477,0.37477 -16,1.2 -0.93333,0.93333 -1.2,0.93333 -1.2,0 0,-0.92332 -17.92678,-1.19267 -77.75,-1.1682 -66.1101,0.0271 -77.47905,0.23724 -75.94016,1.404 2.89463,2.19467 0.36429,2.64736 -2.87222,0.51385 -1.61569,-1.06506 -3.61507,-1.93944 -4.44306,-1.94306 C 141.35494,224.99941 73,292.87592 73,294.51125 c 0,0.55029 -1.2375,1.55028 -2.75,2.2222 -1.5125,0.67193 -8.34937,6.83785 -15.193044,13.70206 -12.023476,12.05956 -12.384424,12.54516 -10.704592,14.40135 1.680686,1.85714 1.545884,2.0289 -4.056957,5.16927 C 37.107933,331.79269 32.475,334.42627 30,335.85853 l -4.5,2.60411 z M 79,321.39436 c 0,-0.33311 1.125,-1.94263 2.5,-3.57673 1.375,-1.63409 2.5,-3.585 2.5,-4.33534 0,-2.11492 -1.915712,-2.79635 -3.706426,-1.31838 -1.36324,1.12515 -1.544276,1.11055 -1.146676,-0.0925 0.689002,-2.08472 3.333604,-3.48477 5.217179,-2.76197 2.309895,0.88639 2.02995,4.91989 -0.570954,8.2264 l -2.206877,2.80559 2.206877,-0.57711 C 85.296401,319.37123 86,319.63562 86,320.59362 86,321.53424 84.840895,322 82.5,322 80.575,322 79,321.72746 79,321.39436 Z m 64,-2 c 0,-0.33311 1.125,-1.94263 2.5,-3.57673 1.375,-1.63409 2.5,-3.585 2.5,-4.33534 0,-2.11492 -1.91571,-2.79635 -3.70643,-1.31838 -1.36324,1.12515 -1.54427,1.11055 -1.14667,-0.0925 0.689,-2.08472 3.3336,-3.48477 5.21718,-2.76197 2.30989,0.88639 2.02995,4.91989 -0.57096,8.2264 l -2.20687,2.80559 2.20687,-0.57711 C 149.2964,317.37123 150,317.63562 150,318.59362 150,319.53424 148.84089,320 146.5,320 c -1.925,0 -3.5,-0.27254 -3.5,-0.60564 z m -115,-1 c 0,-0.33311 1.125,-1.94263 2.5,-3.57673 1.375,-1.63409 2.5,-3.585 2.5,-4.33534 0,-2.11492 -1.915712,-2.79635 -3.706426,-1.31838 -1.36324,1.12515 -1.544276,1.11055 -1.146676,-0.0925 0.689002,-2.08472 3.333604,-3.48477 5.217179,-2.76197 2.309895,0.88639 2.02995,4.91989 -0.570954,8.2264 l -2.206877,2.80559 2.206877,-0.57711 C 34.296401,316.37123 35,316.63562 35,317.59362 35,318.53424 33.840895,319 31.5,319 29.575,319 28,318.72746 28,318.39436 Z M 70,317.5 c 0,-0.825 0.482143,-1.5 1.071429,-1.5 1.665938,0 4.363656,-3.10148 3.34075,-3.84075 -0.501698,-0.36259 -1.692399,-2.34675 -2.646,-4.40925 l -1.733822,-3.75 2.733822,0.0153 c 2.132473,0.012 2.403872,0.22855 1.233821,0.98469 -1,0.64625 -1.083333,0.97448 -0.25,0.98469 0.6875,0.008 1.25,0.71687 1.25,1.57433 0,0.85746 0.45,1.2809 1,0.94098 0.55,-0.33992 1,-1.49148 1,-2.55902 C 77,304.87344 77.498145,304 78.106989,304 c 0.608844,0 0.858767,0.64685 0.555386,1.43745 -0.303382,0.7906 -1.024793,3.19475 -1.603135,5.34255 C 75.458219,316.72574 70,321.92166 70,317.5 Z m 32.5,-0.633 c -2.849616,-2.86975 -2.876336,-14.38743 -0.0382,-16.46273 2.81793,-2.06053 3.498,-1.72332 2.1941,1.08793 -0.63575,1.37071 -1.49341,2.49571 -1.90591,2.5 -0.4125,0.004 -0.75,2.05162 -0.75,4.54961 0,3.15957 0.60868,5.19516 2,6.68856 3.50307,3.76011 2.11378,5.27594 -1.5,1.63663 z m 48.5,1.32156 c 0,-0.44629 0.9,-1.77747 2,-2.95819 1.39132,-1.4934 2,-3.52899 2,-6.68856 0,-2.49799 -0.3375,-4.54532 -0.75,-4.54961 -0.4125,-0.004 -1.27016,-1.12929 -1.90591,-2.5 -1.3039,-2.81125 -0.62383,-3.14846 2.1941,-1.08793 1.55038,1.13366 1.92444,2.66379 1.94113,7.94047 0.0173,5.46897 -0.33987,6.87248 -2.18751,8.59573 C 151.93361,319.13991 151,319.49389 151,318.18856 Z M 12.241526,314.75 c 0.692161,-1.2375 1.543856,-2.475 1.892656,-2.75 0.3488,-0.275 1.2488,-2.32655 2,-4.559 1.663844,-4.94469 3.107257,-5.44819 4.14441,-1.44568 0.428225,1.65257 1.215725,3.00468 1.75,3.00468 0.534274,0 0.97418,0.5625 0.977569,1.25 0.0034,0.6875 0.651702,2.4875 1.440697,4 1.412442,2.70765 1.388337,2.75 -1.565178,2.75 -1.649843,0 -2.746696,-0.40939 -2.437453,-0.90976 C 21.400152,314.54352 19.880206,312 18,312 c -1.880206,0 -3.400152,2.54352 -2.444227,4.09024 0.309243,0.50037 -0.59311,0.90976 -2.00523,0.90976 -2.368798,0 -2.4701,-0.17412 -1.309017,-2.25 z m 6.995186,-6.29205 c -0.541438,-2.83235 -0.508525,-2.83685 -2.136441,0.29205 -1.016589,1.95391 -0.921069,2.25 0.725873,2.25 1.492087,0 1.792886,-0.54208 1.410568,-2.54205 z m 104.435148,7.54519 c 0.64452,-0.68577 0.93387,-1.86702 0.64301,-2.625 -0.29087,-0.75797 6e-4,-1.37814 0.64769,-1.37814 1.68548,0 0.83173,4.2544 -0.96256,4.79667 -1.16234,0.35128 -1.2362,0.17265 -0.32814,-0.79353 z M 109.5,312.17101 c 1.1,-0.96935 2.56485,-2.75203 3.25522,-3.96152 1.05838,-1.85422 0.97998,-2.48108 -0.5,-3.99754 C 107.82464,299.67216 107.56987,299 110.27973,299 c 1.93872,0 2.79944,0.75425 3.70879,3.25 l 1.18417,3.25 1.59508,-3.25 c 0.98285,-2.00256 2.3401,-3.25 3.5361,-3.25 1.70306,0 1.77276,0.21287 0.56857,1.73634 -0.75484,0.95498 -2.21984,2.44763 -3.25556,3.317 -1.63076,1.36884 -1.71159,1.90117 -0.60318,3.97226 0.70397,1.31537 2.22637,3.18275 3.38312,4.14973 l 2.10318,1.75813 -2.65217,0.0333 c -2.09562,0.0263 -2.88531,-0.6355 -3.76313,-3.1536 -1.20434,-3.45477 -3.05317,-2.88175 -3.34842,1.03779 -0.12064,1.60154 -0.80831,2.1406 -2.69908,2.11581 -2.51342,-0.033 -2.51845,-0.0498 -0.5372,-1.79572 z M 130.24153,311.75 c 0.69216,-1.2375 1.54385,-2.475 1.89265,-2.75 0.3488,-0.275 1.2488,-2.32655 2,-4.559 1.66385,-4.94469 3.10726,-5.44819 4.14441,-1.44568 0.42823,1.65257 1.21573,3.00468 1.75,3.00468 0.53428,0 0.97418,0.5625 0.97757,1.25 0.003,0.6875 0.6517,2.4875 1.4407,4 1.41244,2.70765 1.38833,2.75 -1.56518,2.75 -1.64984,0 -2.7467,-0.40939 -2.43745,-0.90976 C 139.40015,311.54352 137.88021,309 136,309 c -1.88021,0 -3.40015,2.54352 -2.44423,4.09024 0.30925,0.50037 -0.59311,0.90976 -2.00523,0.90976 -2.36879,0 -2.4701,-0.17412 -1.30901,-2.25 z m 6.99518,-6.29205 c -0.54144,-2.83235 -0.50852,-2.83685 -2.13644,0.29205 -1.01659,1.95391 -0.92107,2.25 0.72587,2.25 1.49209,0 1.79289,-0.54208 1.41057,-2.54205 z M 87,310.5 c 0,-1.13333 1.222222,-1.5 5,-1.5 3.777778,0 5,0.36667 5,1.5 0,1.13333 -1.222222,1.5 -5,1.5 -3.777778,0 -5,-0.36667 -5,-1.5 z m 0,-3.5 c 0,-0.55 2.25,-1 5,-1 2.75,0 5,0.45 5,1 0,0.55 -2.25,1 -5,1 -2.75,0 -5,-0.45 -5,-1 z m -7,-12 c 0,-0.55 1.575,-1 3.5,-1 1.925,0 3.5,0.45 3.5,1 0,0.55 -1.575,1 -3.5,1 -1.925,0 -3.5,-0.45 -3.5,-1 z m 14,0 c 0,-0.55 1.575,-1 3.5,-1 1.925,0 3.5,0.45 3.5,1 0,0.55 -1.575,1 -3.5,1 -1.925,0 -3.5,-0.45 -3.5,-1 z m 14,0 c 0,-0.55 1.575,-1 3.5,-1 1.925,0 3.5,0.45 3.5,1 0,0.55 -1.575,1 -3.5,1 -1.925,0 -3.5,-0.45 -3.5,-1 z m 14,0 c 0,-0.55 1.575,-1 3.5,-1 1.925,0 3.5,0.45 3.5,1 0,0.55 -1.575,1 -3.5,1 -1.925,0 -3.5,-0.45 -3.5,-1 z m 14,0 c 0,-0.55 1.575,-1 3.5,-1 1.925,0 3.5,0.45 3.5,1 0,0.55 -1.575,1 -3.5,1 -1.925,0 -3.5,-0.45 -3.5,-1 z m 14,0 c 0,-0.55 1.575,-1 3.5,-1 1.925,0 3.5,0.45 3.5,1 0,0.55 -1.575,1 -3.5,1 -1.925,0 -3.5,-0.45 -3.5,-1 z m 14,0 c 0,-0.55 1.575,-1 3.5,-1 1.925,0 3.5,0.45 3.5,1 0,0.55 -1.575,1 -3.5,1 -1.925,0 -3.5,-0.45 -3.5,-1 z m 14,0 c 0,-0.55 1.575,-1 3.5,-1 1.925,0 3.5,0.45 3.5,1 0,0.55 -1.575,1 -3.5,1 -1.925,0 -3.5,-0.45 -3.5,-1 z m 14,0 c 0,-0.55 1.575,-1 3.5,-1 1.925,0 3.5,0.45 3.5,1 0,0.55 -1.575,1 -3.5,1 -1.925,0 -3.5,-0.45 -3.5,-1 z m 14,0 c 0,-0.55 1.575,-1 3.5,-1 1.925,0 3.5,0.45 3.5,1 0,0.55 -1.575,1 -3.5,1 -1.925,0 -3.5,-0.45 -3.5,-1 z m 14,0 c 0,-0.55 1.575,-1 3.5,-1 1.925,0 3.5,0.45 3.5,1 0,0.55 -1.575,1 -3.5,1 -1.925,0 -3.5,-0.45 -3.5,-1 z m 14,0 c 0,-0.55 1.575,-1 3.5,-1 1.925,0 3.5,0.45 3.5,1 0,0.55 -1.575,1 -3.5,1 -1.925,0 -3.5,-0.45 -3.5,-1 z m 14,0.2555 c 0,-0.42969 1.0125,-1.22545 2.25,-1.76837 1.39062,-0.6101 2.37086,-2.03748 2.56642,-3.73713 0.45754,-3.97644 2.18358,-3.38359 2.18358,0.75 0,4.10209 1.13006,4.49402 2.98173,1.03413 0.72584,-1.35623 1.70902,-2.22526 2.18486,-1.93117 0.47584,0.29408 0.12698,1.78434 -0.77524,3.31168 -1.40631,2.3807 -2.33612,2.8016 -6.51587,2.94953 C 250.19396,295.95908 248,295.68518 248,295.2555 Z m -6.55822,-7.77905 c -1.84672,-1.50946 -2.38342,-2.40963 -1.44178,-2.41825 2.05523,-0.0188 6.49786,3.51607 5.32782,4.2392 -0.51934,0.32097 -2.26805,-0.49846 -3.88604,-1.82095 z M 264.02224,283.25 c 0.0422,-1.42435 3.84289,-5.71821 4.48927,-5.07182 0.7776,0.7776 -2.36453,5.82182 -3.62652,5.82182 -0.48674,0 -0.87498,-0.3375 -0.86275,-0.75 z m -34.2803,-3.08186 c -1.51693,-1.00028 -2.47238,-2.10437 -2.12321,-2.45353 0.83132,-0.83133 6.38127,2.04839 6.38127,3.31107 0,1.42336 -1.15038,1.19168 -4.25806,-0.85754 z M 253,276.5 c 0,-1.925 0.45,-3.5 1,-3.5 0.55,0 1,1.575 1,3.5 0,1.925 -0.45,3.5 -1,3.5 -0.55,0 -1,-1.575 -1,-3.5 z m -34.24821,-3.34143 c -1.51152,-0.91221 -2.74902,-2.24651 -2.75,-2.96511 -0.001,-0.97168 0.76707,-0.85235 2.99821,0.46561 1.65,0.97468 3,2.35012 3,3.05654 0,0.70641 -0.1125,1.24325 -0.25,1.19296 -0.1375,-0.0503 -1.4867,-0.83778 -2.99821,-1.75 z m 53.2548,-0.90857 c 0.013,-1.48158 3.658,-6.25208 4.29233,-5.61774 0.75223,0.75222 -2.34713,6.36774 -3.51453,6.36774 -0.43141,0 -0.78142,-0.3375 -0.7778,-0.75 z m -65.28311,-7.06072 c -2.58683,-1.5696 -3.59589,-3.19694 -1.97348,-3.18269 0.4125,0.004 2.03024,0.85065 3.59497,1.88229 3.56866,2.35283 2.08027,3.54649 -1.62149,1.3004 z M 253,262.5 c 0,-1.925 0.45,-3.5 1,-3.5 0.55,0 1,1.575 1,3.5 0,1.925 -0.45,3.5 -1,3.5 -0.55,0 -1,-1.575 -1,-3.5 z m 27.02224,-2.25 c 0.0422,-1.42435 3.84289,-5.71821 4.48927,-5.07182 0.7776,0.7776 -2.36453,5.82182 -3.62652,5.82182 -0.48674,0 -0.87498,-0.3375 -0.86275,-0.75 z m -85.90827,-3.12915 c -1.31232,-1.00907 -1.96112,-2.09728 -1.44179,-2.41825 0.51934,-0.32097 2.26805,0.49846 3.88604,1.82095 3.48682,2.85002 1.20928,3.40659 -2.44425,0.5973 z M 183.25,250.26661 C 180.97701,248.74062 180.25191,247 181.88922,247 c 0.48906,0 1.91211,0.8283 3.16233,1.84066 2.81817,2.28202 1.28324,3.49694 -1.80155,1.42595 z M 253,248.5 c 0,-1.925 0.45,-3.5 1,-3.5 0.55,0 1,1.575 1,3.5 0,1.925 -0.45,3.5 -1,3.5 -0.55,0 -1,-1.575 -1,-3.5 z m 35.05384,0.5 c -0.0138,-2.21371 3.52768,-6.48613 4.31736,-5.20841 0.36156,0.58502 -0.45983,2.33373 -1.82531,3.88604 -1.6269,1.84949 -2.48592,2.30532 -2.49205,1.32237 z M 345.8,248.8 c 1.5226,-1.5226 1.58673,-8.8 0.0776,-8.8 -0.77551,0 -0.73766,-0.46364 0.12244,-1.5 2.19574,-2.6457 3,-1.62696 3,3.8 0,2.915 0.54,5.84 1.2,6.5 0.93333,0.93333 0.44444,1.2 -2.2,1.2 -2.64444,0 -3.13333,-0.26667 -2.2,-1.2 z m -17.55847,-2.05 c 0.69216,-1.2375 1.54385,-2.475 1.89265,-2.75 0.3488,-0.275 1.2488,-2.32655 2,-4.559 1.66385,-4.94469 3.10726,-5.44819 4.14441,-1.44568 0.42823,1.65257 1.21573,3.00468 1.75,3.00468 0.53428,0 0.97418,0.5625 0.97757,1.25 0.003,0.6875 0.6517,2.4875 1.4407,4 1.41244,2.70765 1.38833,2.75 -1.56518,2.75 -1.64984,0 -2.7467,-0.40939 -2.43745,-0.90976 C 337.40015,246.54352 335.88021,244 334,244 c -1.88021,0 -3.40015,2.54352 -2.44423,4.09024 0.30925,0.50037 -0.59311,0.90976 -2.00523,0.90976 -2.36879,0 -2.4701,-0.17412 -1.30901,-2.25 z m 6.99518,-6.29205 c -0.54144,-2.83235 -0.50852,-2.83685 -2.13644,0.29205 -1.01659,1.95391 -0.92107,2.25 0.72587,2.25 1.49209,0 1.79289,-0.54208 1.41057,-2.54205 z m -164.57229,1.58086 c -1.65249,-1.05772 -2.39443,-2.08764 -1.77825,-2.46846 1.16978,-0.72296 6.11383,2.14349 6.11383,3.54466 0,1.26672 -1.10294,0.99294 -4.33558,-1.0762 z M 253,234.5 c 0,-1.925 0.45,-3.5 1,-3.5 0.55,0 1,1.575 1,3.5 0,1.925 -0.45,3.5 -1,3.5 -0.55,0 -1,-1.575 -1,-3.5 z m 43,2.61078 c 0,-1.51263 3.78789,-5.65057 4.51219,-4.92917 0.3764,0.37488 -0.14737,1.82324 -1.16392,3.21857 -1.87569,2.5746 -3.34827,3.32693 -3.34827,1.7106 z m -136.5,-2.58607 c -1.85628,-1.51768 -2.42814,-2.45437 -1.5,-2.45694 2.05214,-0.006 5.28934,2.56676 4.85446,3.8576 -0.19495,0.57867 -1.70446,-0.0516 -3.35446,-1.40066 z M 267,214.5 c 0,-0.825 0.48214,-1.5 1.07143,-1.5 1.66594,0 4.36365,-3.10148 3.34075,-3.84075 -0.5017,-0.36259 -1.6924,-2.34675 -2.646,-4.40925 l -1.73382,-3.75 2.73382,0.0153 c 2.13247,0.012 2.40387,0.22855 1.23382,0.98469 -1,0.64625 -1.08333,0.97448 -0.25,0.98469 0.6875,0.008 1.25,0.71687 1.25,1.57433 0,0.85746 0.45,1.2809 1,0.94098 0.55,-0.33992 1,-1.49148 1,-2.55902 0,-1.06754 0.49814,-1.94098 1.10699,-1.94098 0.60884,0 0.85877,0.64685 0.55538,1.43745 -0.30338,0.7906 -1.02479,3.19475 -1.60313,5.34255 C 272.45822,213.72574 267,218.92166 267,214.5 Z m 11.8,0.3 c 1.5226,-1.5226 1.58673,-8.8 0.0776,-8.8 -0.77551,0 -0.73766,-0.46364 0.12244,-1.5 2.19574,-2.6457 3,-1.62696 3,3.8 0,2.915 0.54,5.84 1.2,6.5 0.93333,0.93333 0.44444,1.2 -2.2,1.2 -2.64444,0 -3.13333,-0.26667 -2.2,-1.2 z m 20.7,-0.933 c -2.84962,-2.86975 -2.87634,-14.38743 -0.0382,-16.46273 2.81793,-2.06053 3.498,-1.72332 2.1941,1.08793 -0.63575,1.37071 -1.49341,2.49571 -1.90591,2.5 -0.4125,0.004 -0.75,2.05162 -0.75,4.54961 0,3.15957 0.60868,5.19516 2,6.68856 3.50307,3.76011 2.11378,5.27594 -1.5,1.63663 z m 48.5,1.32156 c 0,-0.44629 0.9,-1.77747 2,-2.95819 1.39132,-1.4934 2,-3.52899 2,-6.68856 0,-2.49799 -0.3375,-4.54532 -0.75,-4.54961 -0.4125,-0.004 -1.27016,-1.12929 -1.90591,-2.5 -1.3039,-2.81125 -0.62383,-3.14846 2.1941,-1.08793 1.55038,1.13366 1.92444,2.66379 1.94113,7.94047 0.0173,5.46897 -0.33987,6.87248 -2.18751,8.59573 -2.3582,2.19944 -3.29181,2.55342 -3.29181,1.24809 z m -27.32814,-2.18542 c 0.64452,-0.68577 0.93387,-1.86702 0.64301,-2.625 -0.29087,-0.75797 6e-4,-1.37814 0.64769,-1.37814 1.68548,0 0.83173,4.2544 -0.96256,4.79667 -1.16234,0.35128 -1.2362,0.17265 -0.32814,-0.79353 z M 341.8,212.8 c 1.5226,-1.5226 1.58673,-8.8 0.0776,-8.8 -0.77551,0 -0.73766,-0.46364 0.12244,-1.5 2.19574,-2.6457 3,-1.62696 3,3.8 0,2.915 0.54,5.84 1.2,6.5 0.93333,0.93333 0.44444,1.2 -2.2,1.2 -2.64444,0 -3.13333,-0.26667 -2.2,-1.2 z m -35.3,-3.62899 c 1.1,-0.96935 2.56485,-2.75203 3.25522,-3.96152 1.05838,-1.85422 0.97998,-2.48108 -0.5,-3.99754 C 304.82464,196.67216 304.56987,196 307.27973,196 c 1.93872,0 2.79944,0.75425 3.70879,3.25 l 1.18417,3.25 1.59508,-3.25 c 0.98285,-2.00256 2.3401,-3.25 3.5361,-3.25 1.70306,0 1.77276,0.21287 0.56857,1.73634 -0.75484,0.95498 -2.21984,2.44763 -3.25556,3.317 -1.63076,1.36884 -1.71159,1.90117 -0.60318,3.97226 0.70397,1.31537 2.22637,3.18275 3.38312,4.14973 l 2.10318,1.75813 -2.65217,0.0333 c -2.09562,0.0263 -2.88531,-0.6355 -3.76313,-3.1536 -1.20434,-3.45477 -3.05317,-2.88175 -3.34842,1.03779 -0.12064,1.60154 -0.80831,2.1406 -2.69908,2.11581 -2.51342,-0.033 -2.51845,-0.0498 -0.5372,-1.79572 z M 327.24153,208.75 c 0.69216,-1.2375 1.54385,-2.475 1.89265,-2.75 0.3488,-0.275 1.2488,-2.32655 2,-4.559 1.66385,-4.94469 3.10726,-5.44819 4.14441,-1.44568 0.42823,1.65257 1.21573,3.00468 1.75,3.00468 0.53428,0 0.97418,0.5625 0.97757,1.25 0.003,0.6875 0.6517,2.4875 1.4407,4 1.41244,2.70765 1.38833,2.75 -1.56518,2.75 -1.64984,0 -2.7467,-0.40939 -2.43745,-0.90976 C 336.40015,208.54352 334.88021,206 333,206 c -1.88021,0 -3.40015,2.54352 -2.44423,4.09024 0.30925,0.50037 -0.59311,0.90976 -2.00523,0.90976 -2.36879,0 -2.4701,-0.17412 -1.30901,-2.25 z m 6.99518,-6.29205 c -0.54144,-2.83235 -0.50852,-2.83685 -2.13644,0.29205 -1.01659,1.95391 -0.92107,2.25 0.72587,2.25 1.49209,0 1.79289,-0.54208 1.41057,-2.54205 z M 253,206.5 c 0,-1.925 0.45,-3.5 1,-3.5 0.55,0 1,1.575 1,3.5 0,1.925 -0.45,3.5 -1,3.5 -0.55,0 -1,-1.575 -1,-3.5 z m 31,1 c 0,-1.13333 1.22222,-1.5 5,-1.5 3.77778,0 5,0.36667 5,1.5 0,1.13333 -1.22222,1.5 -5,1.5 -3.77778,0 -5,-0.36667 -5,-1.5 z m 0,-3.5 c 0,-0.55 2.25,-1 5,-1 2.75,0 5,0.45 5,1 0,0.55 -2.25,1 -5,1 -2.75,0 -5,-0.45 -5,-1 z m -31,-11.5 c 0,-1.925 0.45,-3.5 1,-3.5 0.55,0 1,1.575 1,3.5 0,1.925 -0.45,3.5 -1,3.5 -0.55,0 -1,-1.575 -1,-3.5 z m 0,-14 c 0,-1.925 0.45,-3.5 1,-3.5 0.55,0 1,1.575 1,3.5 0,1.925 -0.45,3.5 -1,3.5 -0.55,0 -1,-1.575 -1,-3.5 z m 0,-14 c 0,-1.925 0.45,-3.5 1,-3.5 0.55,0 1,1.575 1,3.5 0,1.925 -0.45,3.5 -1,3.5 -0.55,0 -1,-1.575 -1,-3.5 z m 0,-14 c 0,-1.925 0.45,-3.5 1,-3.5 0.55,0 1,1.575 1,3.5 0,1.925 -0.45,3.5 -1,3.5 -0.55,0 -1,-1.575 -1,-3.5 z m 0,-14 c 0,-1.925 0.45,-3.5 1,-3.5 0.55,0 1,1.575 1,3.5 0,1.925 -0.45,3.5 -1,3.5 -0.55,0 -1,-1.575 -1,-3.5 z m 103,-16.10564 c 0,-0.33311 1.125,-1.94263 2.5,-3.57673 1.375,-1.63409 2.5,-3.585 2.5,-4.33534 0,-2.04253 -1.89387,-2.81526 -3.5438,-1.44594 -1.74664,1.44958 -1.96646,-0.12609 -0.2562,-1.83635 1.91534,-1.91534 4.78701,-1.39266 5.76884,1.05 0.69292,1.7239 0.91921,1.84081 0.96777,0.5 0.0349,-0.9625 0.44784,-1.75 0.91771,-1.75 0.46988,0 1.53652,-2.1375 2.37031,-4.75 1.77974,-5.576411 2.83163,-5.971819 3.99039,-1.5 0.46319,1.7875 1.2793,3.25 1.81357,3.25 0.53428,0 0.97418,0.5625 0.97757,1.25 0.003,0.6875 0.6517,2.4875 1.4407,4 1.41244,2.70765 1.38833,2.75 -1.56518,2.75 -1.64984,0 -2.7467,-0.40939 -2.43745,-0.90976 C 372.40015,111.54352 370.88021,109 369,109 c -1.88021,0 -3.40015,2.54352 -2.44423,4.09024 0.30925,0.50037 -0.47679,0.9239 -1.74675,0.94118 -1.31474,0.0179 -3.13481,1.16352 -4.22677,2.6605 -1.91604,2.62673 -1.91581,2.62857 0.25,2.0622 1.46481,-0.38306 2.16775,-0.11083 2.16775,0.8395 0,0.94062 -1.15911,1.40638 -3.5,1.40638 -1.925,0 -3.5,-0.27254 -3.5,-0.60564 z m 14.23671,-14.93641 c -0.54144,-2.83235 -0.50852,-2.83685 -2.13644,0.29205 -1.01659,1.95391 -0.92107,2.25 0.72587,2.25 1.49209,0 1.79289,-0.54208 1.41057,-2.54205 z M 377,120.39436 c 0,-0.33311 1.125,-1.94263 2.5,-3.57673 1.375,-1.63409 2.5,-3.585 2.5,-4.33534 0,-2.11492 -1.91571,-2.79635 -3.70643,-1.31838 -1.36324,1.12515 -1.54427,1.11055 -1.14667,-0.0925 0.689,-2.08472 3.3336,-3.48477 5.21718,-2.76197 2.30989,0.88639 2.02995,4.91989 -0.57096,8.2264 l -2.20687,2.80559 2.20687,-0.57711 C 383.2964,118.37123 384,118.63562 384,119.59362 384,120.53424 382.84089,121 380.5,121 c -1.925,0 -3.5,-0.27254 -3.5,-0.60564 z M 307.8,118.8 c 1.5226,-1.5226 1.58673,-8.8 0.0776,-8.8 -0.77551,0 -0.73766,-0.46364 0.12244,-1.5 2.19574,-2.6457 3,-1.62696 3,3.8 0,2.915 0.54,5.84 1.2,6.5 0.93333,0.93333 0.44444,1.2 -2.2,1.2 -2.64444,0 -3.13333,-0.26667 -2.2,-1.2 z m 20,0 c 1.5226,-1.5226 1.58673,-8.8 0.0776,-8.8 -0.77551,0 -0.73766,-0.46364 0.12244,-1.5 2.19574,-2.6457 3,-1.62696 3,3.8 0,2.915 0.54,5.84 1.2,6.5 0.93333,0.93333 0.44444,1.2 -2.2,1.2 -2.64444,0 -3.13333,-0.26667 -2.2,-1.2 z m 81.2,0.19903 c 0,-0.67966 0.80307,-0.87892 2.00493,-0.49747 2.81209,0.89253 3.9515,-2.32903 1.46642,-4.14617 -1.79931,-1.31569 -1.79675,-1.39736 0.0875,-2.78807 1.51989,-1.12177 1.67906,-1.6985 0.73351,-2.65762 -0.95237,-0.96603 -1.568,-0.92741 -2.91262,0.18268 -1.4777,1.21996 -1.63971,1.20765 -1.21526,-0.0924 0.70462,-2.15816 5.6899,-2.54299 6.47397,-0.49975 0.3449,0.8988 0.14959,2.11169 -0.43402,2.6953 -0.74815,0.74815 -0.71573,1.61416 0.10992,2.93624 0.85631,1.37116 0.87713,2.34453 0.0775,3.62167 C 414.15007,119.73671 409,120.7403 409,118.99903 Z M 296,117.5 c 0,-0.825 0.48214,-1.5 1.07143,-1.5 1.66594,0 4.36365,-3.10148 3.34075,-3.84075 -0.5017,-0.36259 -1.6924,-2.34675 -2.646,-4.40925 l -1.73382,-3.75 2.73382,0.0153 c 2.13247,0.0119 2.40387,0.22855 1.23382,0.98469 -1,0.64625 -1.08333,0.97448 -0.25,0.98469 0.6875,0.008 1.25,0.71687 1.25,1.57433 0,0.85746 0.45,1.2809 1,0.94098 0.55,-0.33992 1,-1.49148 1,-2.55902 0,-1.06754 0.49814,-1.94098 1.10699,-1.94098 0.60884,0 0.85877,0.64685 0.55538,1.43745 -0.30338,0.7906 -1.02479,3.19475 -1.60313,5.34255 C 301.45822,116.72574 296,121.92166 296,117.5 Z m 49,0 c 0,-0.825 0.48214,-1.5 1.07143,-1.5 1.66594,0 4.36365,-3.10148 3.34075,-3.84075 -0.5017,-0.36259 -1.6924,-2.34675 -2.646,-4.40925 l -1.73382,-3.75 2.73382,0.0153 c 2.13247,0.0119 2.40387,0.22855 1.23382,0.98469 -1,0.64625 -1.08333,0.97448 -0.25,0.98469 0.6875,0.008 1.25,0.71687 1.25,1.57433 0,0.85746 0.45,1.2809 1,0.94098 0.55,-0.33992 1,-1.49148 1,-2.55902 0,-1.06754 0.49814,-1.94098 1.10699,-1.94098 0.60884,0 0.85877,0.64685 0.55538,1.43745 -0.30338,0.7906 -1.02479,3.19475 -1.60313,5.34255 C 350.45822,116.72574 345,121.92166 345,117.5 Z m 55,0 c 0,-0.825 0.48214,-1.5 1.07143,-1.5 1.66594,0 4.36365,-3.10148 3.34075,-3.84075 -0.5017,-0.36259 -1.6924,-2.34675 -2.646,-4.40925 l -1.73382,-3.75 2.73382,0.0153 c 2.13247,0.0119 2.40387,0.22855 1.23382,0.98469 -1,0.64625 -1.08333,0.97448 -0.25,0.98469 0.6875,0.008 1.25,0.71687 1.25,1.57433 0,0.85746 0.45,1.2809 1,0.94098 0.55,-0.33992 1,-1.49148 1,-2.55902 0,-1.06754 0.49814,-1.94098 1.10699,-1.94098 0.60884,0 0.85877,0.64685 0.55538,1.43745 -0.30338,0.7906 -1.02479,3.19475 -1.60313,5.34255 C 405.45822,116.72574 400,121.92166 400,117.5 Z m 32,0.49903 c 0,-0.67966 0.80307,-0.87892 2.00493,-0.49747 2.81209,0.89253 3.9515,-2.32903 1.46642,-4.14617 -1.79931,-1.31569 -1.79675,-1.39736 0.0875,-2.78807 1.51989,-1.12177 1.67906,-1.6985 0.73351,-2.65762 -0.95237,-0.96603 -1.568,-0.92741 -2.91262,0.18268 -1.4777,1.21996 -1.63971,1.20765 -1.21526,-0.0924 0.70462,-2.15816 5.6899,-2.54299 6.47397,-0.49975 0.3449,0.8988 0.14959,2.11169 -0.43402,2.6953 -0.74815,0.74815 -0.71573,1.61416 0.10992,2.93624 0.85631,1.37116 0.87713,2.34453 0.0775,3.62167 C 437.15007,118.73671 432,119.7403 432,117.99903 Z m -162.5,-5.82802 c 1.1,-0.96935 2.56485,-2.75203 3.25522,-3.96152 1.05838,-1.85422 0.97998,-2.48108 -0.5,-3.99754 C 267.82464,99.672161 267.56987,99 270.27973,99 c 1.93872,0 2.79944,0.754248 3.70879,3.25 l 1.18417,3.25 1.59508,-3.25 c 0.98285,-2.00256 2.3401,-3.25 3.5361,-3.25 1.70306,0 1.77276,0.212871 0.56857,1.73634 -0.75484,0.95498 -2.21984,2.44763 -3.25556,3.317 -1.63076,1.36884 -1.71159,1.90117 -0.60318,3.97226 0.70397,1.31537 2.22637,3.18275 3.38312,4.14973 l 2.10318,1.75813 -2.65217,0.0333 c -2.09562,0.0263 -2.88531,-0.6355 -3.76313,-3.1536 -1.20434,-3.45477 -3.05317,-2.88175 -3.34842,1.03779 -0.12064,1.60154 -0.80831,2.1406 -2.69908,2.11581 -2.51342,-0.033 -2.51845,-0.0498 -0.5372,-1.79572 z M 314.24153,111.75 c 0.69216,-1.2375 1.54385,-2.475 1.89265,-2.75 0.3488,-0.275 1.2488,-2.32655 2,-4.559 1.66385,-4.944688 3.10726,-5.44819 4.14441,-1.44568 0.42823,1.65257 1.21573,3.00468 1.75,3.00468 0.53428,0 0.97418,0.5625 0.97757,1.25 0.003,0.6875 0.6517,2.4875 1.4407,4 1.41244,2.70765 1.38833,2.75 -1.56518,2.75 -1.64984,0 -2.7467,-0.40939 -2.43745,-0.90976 C 323.40015,111.54352 321.88021,109 320,109 c -1.88021,0 -3.40015,2.54352 -2.44423,4.09024 0.30925,0.50037 -0.59311,0.90976 -2.00523,0.90976 -2.36879,0 -2.4701,-0.17412 -1.30901,-2.25 z m 6.99518,-6.29205 c -0.54144,-2.83235 -0.50852,-2.83685 -2.13644,0.29205 -1.01659,1.95391 -0.92107,2.25 0.72587,2.25 1.49209,0 1.79289,-0.54208 1.41057,-2.54205 z m 97.00482,6.29205 c 0.69216,-1.2375 1.54385,-2.475 1.89265,-2.75 0.3488,-0.275 1.2488,-2.32655 2,-4.559 1.66385,-4.944688 3.10726,-5.44819 4.14441,-1.44568 0.42823,1.65257 1.21573,3.00468 1.75,3.00468 0.53428,0 0.97418,0.5625 0.97757,1.25 0.003,0.6875 0.6517,2.4875 1.4407,4 1.41244,2.70765 1.38833,2.75 -1.56518,2.75 -1.64984,0 -2.7467,-0.40939 -2.43745,-0.90976 C 427.40015,111.54352 425.88021,109 424,109 c -1.88021,0 -3.40015,2.54352 -2.44423,4.09024 0.30925,0.50037 -0.59311,0.90976 -2.00523,0.90976 -2.36879,0 -2.4701,-0.17412 -1.30901,-2.25 z m 6.99518,-6.29205 c -0.54144,-2.83235 -0.50852,-2.83685 -2.13644,0.29205 -1.01659,1.95391 -0.92107,2.25 0.72587,2.25 1.49209,0 1.79289,-0.54208 1.41057,-2.54205 z M 339,111 c 0,-1.33333 -0.66667,-2 -2,-2 -1.1,0 -2,-0.45 -2,-1 0,-0.55 0.9,-1 2,-1 1.11111,0 2,-0.66667 2,-1.5 0,-0.825 0.45,-1.5 1,-1.5 0.55,0 1,0.675 1,1.5 0,0.825 0.675,1.5 1.5,1.5 0.825,0 1.5,0.45 1.5,1 0,0.55 -0.675,1 -1.5,1 -0.83333,0 -1.5,0.88889 -1.5,2 0,1.1 -0.45,2 -1,2 -0.55,0 -1,-0.9 -1,-2 z m 49,0 c 0,-1.33333 -0.66667,-2 -2,-2 -1.1,0 -2,-0.45 -2,-1 0,-0.55 0.9,-1 2,-1 1.11111,0 2,-0.66667 2,-1.5 0,-0.825 0.45,-1.5 1,-1.5 0.55,0 1,0.675 1,1.5 0,0.825 0.675,1.5 1.5,1.5 0.825,0 1.5,0.45 1.5,1 0,0.55 -0.675,1 -1.5,1 -0.83333,0 -1.5,0.88889 -1.5,2 0,1.1 -0.45,2 -1,2 -0.55,0 -1,-0.9 -1,-2 z m -149.55822,-1.52355 c -1.84672,-1.50946 -2.38342,-2.40963 -1.44178,-2.41825 2.05523,-0.0188 6.49786,3.51607 5.32782,4.2392 -0.51934,0.32097 -2.26805,-0.49846 -3.88604,-1.82095 z M 284,110.5 c 0,-1.13333 1.22222,-1.5 5,-1.5 3.77778,0 5,0.36667 5,1.5 0,1.13333 -1.22222,1.5 -5,1.5 -3.77778,0 -5,-0.36667 -5,-1.5 z m 0,-3.5 c 0,-0.55 2.25,-1 5,-1 2.75,0 5,0.45 5,1 0,0.55 -2.25,1 -5,1 -2.75,0 -5,-0.45 -5,-1 z m -57.25806,-4.83186 c -1.51693,-1.00028 -2.47238,-2.10437 -2.12321,-2.453532 C 225.45005,98.88328 231,101.763 231,103.02568 c 0,1.42336 -1.15038,1.19168 -4.25806,-0.85754 z m -10.99015,-7.009566 c -1.51152,-0.912216 -2.74902,-2.246515 -2.75,-2.96511 -0.001,-0.971688 0.76707,-0.852359 2.99821,0.465607 1.65,0.974679 3,2.350121 3,3.056537 0,0.706415 -0.1125,1.24325 -0.25,1.192966 -0.1375,-0.05028 -1.4867,-0.837784 -2.99821,-1.75 z m -12.02831,-7.969295 c -2.58683,-1.569598 -3.59589,-3.196944 -1.97348,-3.18269 0.4125,0.0036 2.03024,0.850654 3.59497,1.882288 3.56866,2.352831 2.08027,3.546494 -1.62149,1.300402 z m -12.60951,-8.068425 c -1.31232,-1.009072 -1.96112,-2.097285 -1.44179,-2.418252 0.51934,-0.320968 2.26805,0.498458 3.88604,1.820947 3.48682,2.850024 1.20928,3.40659 -2.44425,0.597305 z M 180.25,72.266608 C 177.97701,70.740622 177.25191,69 178.88922,69 c 0.48906,0 1.91211,0.828296 3.16233,1.840657 2.81817,2.282022 1.28324,3.496945 -1.80155,1.425951 z M 56,65.999035 c 0,-0.679664 0.803071,-0.878926 2.004926,-0.497472 2.812098,0.892526 3.951505,-2.329035 1.466424,-4.146171 -1.799314,-1.31569 -1.79675,-1.397358 0.08752,-2.788071 1.519885,-1.121774 1.679065,-1.698504 0.733512,-2.657619 -0.952369,-0.966028 -1.567998,-0.927416 -2.912622,0.18268 C 55.902004,57.31239 55.740859,57.300077 56.170712,56 56.454667,55.141187 57.806555,54.526716 59.333333,54.5625 70.569837,54.825856 72,55.044614 72,56.5 c 0,1.126437 -1.203704,1.5 -4.833333,1.5 -5.64621,0 -6.476518,0.530987 -4.865106,3.111267 0.867036,1.388346 0.891197,2.363043 0.09028,3.642189 C 61.150067,66.736706 56,67.740299 56,65.999035 Z m 111.66442,-1.960226 c -1.65249,-1.057722 -2.39443,-2.08764 -1.77825,-2.468461 C 167.05595,60.847387 172,63.713839 172,65.11501 c 0,1.266719 -1.10294,0.992941 -4.33558,-1.076201 z M 45,63.5 c 0,-0.825 0.482143,-1.5 1.071429,-1.5 1.665938,0 4.363656,-3.101477 3.34075,-3.840751 C 48.910481,57.796662 47.71978,55.8125 46.766179,53.75 L 45.032357,50 47.766179,50.01531 C 49.898652,50.027257 50.170051,50.243855 49,51 c -1,0.64625 -1.083333,0.974479 -0.25,0.984687 0.6875,0.0084 1.25,0.716871 1.25,1.57433 0,0.857459 0.45,1.280902 1,0.940983 0.55,-0.339919 1,-1.491476 1,-2.559017 C 52,50.873442 52.498145,50 53.106989,50 c 0.608844,0 0.858767,0.646854 0.555386,1.437454 -0.303382,0.7906 -1.024793,3.194746 -1.603135,5.342547 C 50.458219,62.725738 45,67.921655 45,63.5 Z M 77.5,62.867002 C 74.650384,59.99725 74.623664,48.47957 77.461808,46.404268 c 2.817934,-2.060523 3.498001,-1.723317 2.194107,1.08793 -0.635753,1.370709 -1.493415,2.495709 -1.905915,2.5 -0.4125,0.0043 -0.75,2.051618 -0.75,4.549615 0,3.159565 0.608677,5.195152 2,6.688562 3.503069,3.760103 2.113777,5.275938 -1.5,1.636627 z m 48.5,1.321559 c 0,-0.446291 0.9,-1.777475 2,-2.958186 1.39132,-1.49341 2,-3.528997 2,-6.688562 0,-2.497997 -0.3375,-4.545324 -0.75,-4.549615 -0.4125,-0.0043 -1.27016,-1.129291 -1.90591,-2.5 -1.3039,-2.811247 -0.62383,-3.148453 2.1941,-1.08793 1.55038,1.133666 1.92444,2.663793 1.94113,7.940469 0.0173,5.468978 -0.33987,6.872478 -2.18751,8.595732 C 126.93361,65.139914 126,65.493894 126,64.188561 Z M 98.671855,62.003145 c 0.64452,-0.68577 0.933875,-1.86702 0.643011,-2.625 C 99.024002,58.620165 99.315465,58 99.962562,58 101.64804,58 100.79429,62.254403 99,62.796672 c -1.162336,0.35128 -1.236205,0.172649 -0.328145,-0.793527 z M 119,61.999035 c 0,-0.679664 0.80307,-0.878926 2.00493,-0.497472 2.81209,0.892526 3.9515,-2.329035 1.46642,-4.146171 -1.79931,-1.31569 -1.79675,-1.397358 0.0875,-2.788071 1.51989,-1.121774 1.67906,-1.698504 0.73351,-2.657619 -0.95237,-0.966028 -1.568,-0.927416 -2.91262,0.18268 -1.4777,1.219961 -1.63971,1.207646 -1.21526,-0.09238 0.70462,-2.158159 5.6899,-2.542994 6.47397,-0.499754 0.3449,0.898804 0.14959,2.11169 -0.43402,2.695302 -0.74815,0.74815 -0.71573,1.614158 0.10992,2.936238 0.85631,1.371161 0.87713,2.344533 0.0775,3.62167 C 124.15007,62.736706 119,63.740299 119,61.999035 Z M 84.5,58.171009 c 1.1,-0.969349 2.564847,-2.752031 3.255216,-3.961515 1.058386,-1.854226 0.97998,-2.481082 -0.5,-3.997543 C 82.824638,45.672161 82.569869,45 85.27973,45 c 1.938715,0 2.799438,0.754248 3.70879,3.25 l 1.184171,3.25 1.595081,-3.25 C 92.750619,46.247436 94.107867,45 95.303871,45 c 1.703054,0 1.77276,0.212871 0.568574,1.736338 -0.754845,0.954985 -2.219849,2.447637 -3.255565,3.317003 -1.630756,1.368834 -1.711591,1.901174 -0.60318,3.972258 0.703968,1.315376 2.226372,3.182753 3.383121,4.149727 L 97.5,59.933461 l -2.652175,0.03327 c -2.095612,0.02629 -2.885309,-0.635501 -3.763125,-3.153606 -1.204337,-3.454762 -3.053174,-2.881743 -3.348423,1.037794 -0.120641,1.601542 -0.808308,2.140605 -2.699081,2.115812 C 82.523781,59.933773 82.518746,59.916942 84.5,58.171009 Z M 105.24153,57.75 c 0.69216,-1.2375 1.54385,-2.475 1.89265,-2.75 0.3488,-0.275 1.2488,-2.32655 2,-4.559001 1.66385,-4.944687 3.10726,-5.448189 4.14441,-1.445683 0.42823,1.652576 1.21573,3.004684 1.75,3.004684 0.53428,0 0.97418,0.5625 0.97757,1.25 0.003,0.6875 0.6517,2.4875 1.4407,4 1.41244,2.707647 1.38833,2.75 -1.56518,2.75 -1.64984,0 -2.7467,-0.409391 -2.43745,-0.909758 C 114.40015,57.543523 112.88021,55 111,55 c -1.88021,0 -3.40015,2.543523 -2.44423,4.090242 C 108.86502,59.590609 107.96266,60 106.55054,60 c -2.36879,0 -2.4701,-0.174123 -1.30901,-2.25 z m 6.99518,-6.292051 c -0.54144,-2.83235 -0.50852,-2.836849 -2.13644,0.292051 -1.01659,1.953913 -0.92107,2.25 0.72587,2.25 1.49209,0 1.79289,-0.542084 1.41057,-2.542051 z M 156.5,56.524711 c -1.85628,-1.517683 -2.42814,-2.454371 -1.5,-2.456945 2.05214,-0.0057 5.28934,2.566763 4.85446,3.857607 C 159.65951,58.504041 158.15,57.873743 156.5,56.524711 Z M 62,53 c 0,-0.55 2.25,-1 5,-1 2.75,0 5,0.45 5,1 0,0.55 -2.25,1 -5,1 -2.75,0 -5,-0.45 -5,-1 z M 171,25.999035 c 0,-0.679664 0.80307,-0.878926 2.00493,-0.497472 2.81209,0.892526 3.9515,-2.329035 1.46642,-4.146171 -1.79931,-1.31569 -1.79675,-1.397358 0.0875,-2.788071 1.51989,-1.121774 1.67906,-1.698504 0.73351,-2.657619 -0.95237,-0.966028 -1.568,-0.927416 -2.91262,0.18268 -1.4777,1.219961 -1.63971,1.207646 -1.21526,-0.09238 0.70462,-2.158159 5.6899,-2.542994 6.47397,-0.499754 0.3449,0.898804 0.14959,2.11169 -0.43402,2.695302 -0.74815,0.74815 -0.71573,1.614158 0.10992,2.936238 0.85631,1.371161 0.87713,2.344533 0.0775,3.62167 C 176.15007,26.736706 171,27.740299 171,25.999035 Z M 155.24153,22.75 c 0.69216,-1.2375 1.54385,-2.475 1.89265,-2.75 0.3488,-0.275 1.2488,-2.32655 2,-4.559001 1.66385,-4.944687 3.10726,-5.4481891 4.14441,-1.445683 0.42823,1.652576 1.21573,3.004684 1.75,3.004684 0.53428,0 0.97418,0.5625 0.97757,1.25 0.003,0.6875 0.6517,2.4875 1.4407,4 1.41244,2.707647 1.38833,2.75 -1.56518,2.75 -1.64984,0 -2.7467,-0.409391 -2.43745,-0.909758 C 164.40015,22.543523 162.88021,20 161,20 c -1.88021,0 -3.40015,2.543523 -2.44423,4.090242 C 158.86502,24.590609 157.96266,25 156.55054,25 c -2.36879,0 -2.4701,-0.174123 -1.30901,-2.25 z m 6.99518,-6.292051 c -0.54144,-2.83235 -0.50852,-2.836849 -2.13644,0.292051 -1.01659,1.953913 -0.92107,2.25 0.72587,2.25 1.49209,0 1.79289,-0.542084 1.41057,-2.542051 z"
       style="fill:#0000fe" />
    <path
       id="path24"
       d="m 27.06557,335.98132 c 0.861064,-1.36473 3.731137,-5.98646 6.37794,-10.27052 4.395126,-7.11387 4.956957,-7.65836 6.480001,-6.28002 1.518979,1.37466 2.727138,0.44691 13.553468,-10.4077 6.53721,-6.55428 12.303229,-11.65892 12.813376,-11.34363 0.510147,0.31529 -4.608356,6.12247 -11.374451,12.90485 -11.886861,11.91547 -12.243327,12.39642 -10.56354,14.25256 1.680686,1.85714 1.545884,2.0289 -4.056957,5.16927 C 37.107933,331.79269 32.475,334.42627 30,335.85853 l -4.5,2.60411 z M 79,321.39436 c 0,-0.33311 1.125,-1.94263 2.5,-3.57673 1.375,-1.63409 2.5,-3.585 2.5,-4.33534 0,-2.11492 -1.915712,-2.79635 -3.706426,-1.31838 -1.36324,1.12515 -1.544276,1.11055 -1.146676,-0.0925 0.689002,-2.08472 3.333604,-3.48477 5.217179,-2.76197 2.309895,0.88639 2.02995,4.91989 -0.570954,8.2264 l -2.206877,2.80559 2.206877,-0.57711 C 85.296401,319.37123 86,319.63562 86,320.59362 86,321.53424 84.840895,322 82.5,322 80.575,322 79,321.72746 79,321.39436 Z m 64,-2 c 0,-0.33311 1.125,-1.94263 2.5,-3.57673 1.375,-1.63409 2.5,-3.585 2.5,-4.33534 0,-2.11492 -1.91571,-2.79635 -3.70643,-1.31838 -1.36324,1.12515 -1.54427,1.11055 -1.14667,-0.0925 0.689,-2.08472 3.3336,-3.48477 5.21718,-2.76197 2.30989,0.88639 2.02995,4.91989 -0.57096,8.2264 l -2.20687,2.80559 2.20687,-0.57711 C 149.2964,317.37123 150,317.63562 150,318.59362 150,319.53424 148.84089,320 146.5,320 c -1.925,0 -3.5,-0.27254 -3.5,-0.60564 z m -115,-1 c 0,-0.33311 1.125,-1.94263 2.5,-3.57673 1.375,-1.63409 2.5,-3.585 2.5,-4.33534 0,-2.11492 -1.915712,-2.79635 -3.706426,-1.31838 -1.36324,1.12515 -1.544276,1.11055 -1.146676,-0.0925 0.689002,-2.08472 3.333604,-3.48477 5.217179,-2.76197 2.309895,0.88639 2.02995,4.91989 -0.570954,8.2264 l -2.206877,2.80559 2.206877,-0.57711 C 34.296401,316.37123 35,316.63562 35,317.59362 35,318.53424 33.840895,319 31.5,319 29.575,319 28,318.72746 28,318.39436 Z M 70,317.5 c 0,-0.825 0.482143,-1.5 1.071429,-1.5 1.665938,0 4.363656,-3.10148 3.34075,-3.84075 -0.501698,-0.36259 -1.692399,-2.34675 -2.646,-4.40925 l -1.733822,-3.75 2.733822,0.0153 c 2.132473,0.012 2.403872,0.22855 1.233821,0.98469 -1,0.64625 -1.083333,0.97448 -0.25,0.98469 0.6875,0.008 1.25,0.71687 1.25,1.57433 0,0.85746 0.45,1.2809 1,0.94098 0.55,-0.33992 1,-1.49148 1,-2.55902 C 77,304.87344 77.498145,304 78.106989,304 c 0.608844,0 0.858767,0.64685 0.555386,1.43745 -0.303382,0.7906 -1.024793,3.19475 -1.603135,5.34255 C 75.458219,316.72574 70,321.92166 70,317.5 Z m 32.5,-0.633 c -2.849616,-2.86975 -2.876336,-14.38743 -0.0382,-16.46273 2.81793,-2.06053 3.498,-1.72332 2.1941,1.08793 -0.63575,1.37071 -1.49341,2.49571 -1.90591,2.5 -0.4125,0.004 -0.75,2.05162 -0.75,4.54961 0,3.15957 0.60868,5.19516 2,6.68856 3.50307,3.76011 2.11378,5.27594 -1.5,1.63663 z m 48.5,1.32156 c 0,-0.44629 0.9,-1.77747 2,-2.95819 1.39132,-1.4934 2,-3.52899 2,-6.68856 0,-2.49799 -0.3375,-4.54532 -0.75,-4.54961 -0.4125,-0.004 -1.27016,-1.12929 -1.90591,-2.5 -1.3039,-2.81125 -0.62383,-3.14846 2.1941,-1.08793 1.55038,1.13366 1.92444,2.66379 1.94113,7.94047 0.0173,5.46897 -0.33987,6.87248 -2.18751,8.59573 C 151.93361,319.13991 151,319.49389 151,318.18856 Z M 12.241526,314.75 c 0.692161,-1.2375 1.543856,-2.475 1.892656,-2.75 0.3488,-0.275 1.2488,-2.32655 2,-4.559 1.663844,-4.94469 3.107257,-5.44819 4.14441,-1.44568 0.428225,1.65257 1.215725,3.00468 1.75,3.00468 0.534274,0 0.97418,0.5625 0.977569,1.25 0.0034,0.6875 0.651702,2.4875 1.440697,4 1.412442,2.70765 1.388337,2.75 -1.565178,2.75 -1.649843,0 -2.746696,-0.40939 -2.437453,-0.90976 C 21.400152,314.54352 19.880206,312 18,312 c -1.880206,0 -3.400152,2.54352 -2.444227,4.09024 0.309243,0.50037 -0.59311,0.90976 -2.00523,0.90976 -2.368798,0 -2.4701,-0.17412 -1.309017,-2.25 z m 6.995186,-6.29205 c -0.541438,-2.83235 -0.508525,-2.83685 -2.136441,0.29205 -1.016589,1.95391 -0.921069,2.25 0.725873,2.25 1.492087,0 1.792886,-0.54208 1.410568,-2.54205 z m 104.435148,7.54519 c 0.64452,-0.68577 0.93387,-1.86702 0.64301,-2.625 -0.29087,-0.75797 6e-4,-1.37814 0.64769,-1.37814 1.68548,0 0.83173,4.2544 -0.96256,4.79667 -1.16234,0.35128 -1.2362,0.17265 -0.32814,-0.79353 z M 109.5,312.17101 c 1.1,-0.96935 2.56485,-2.75203 3.25522,-3.96152 1.05838,-1.85422 0.97998,-2.48108 -0.5,-3.99754 C 107.82464,299.67216 107.56987,299 110.27973,299 c 1.93872,0 2.79944,0.75425 3.70879,3.25 l 1.18417,3.25 1.59508,-3.25 c 0.98285,-2.00256 2.3401,-3.25 3.5361,-3.25 1.70306,0 1.77276,0.21287 0.56857,1.73634 -0.75484,0.95498 -2.21984,2.44763 -3.25556,3.317 -1.63076,1.36884 -1.71159,1.90117 -0.60318,3.97226 0.70397,1.31537 2.22637,3.18275 3.38312,4.14973 l 2.10318,1.75813 -2.65217,0.0333 c -2.09562,0.0263 -2.88531,-0.6355 -3.76313,-3.1536 -1.20434,-3.45477 -3.05317,-2.88175 -3.34842,1.03779 -0.12064,1.60154 -0.80831,2.1406 -2.69908,2.11581 -2.51342,-0.033 -2.51845,-0.0498 -0.5372,-1.79572 z M 130.24153,311.75 c 0.69216,-1.2375 1.54385,-2.475 1.89265,-2.75 0.3488,-0.275 1.2488,-2.32655 2,-4.559 1.66385,-4.94469 3.10726,-5.44819 4.14441,-1.44568 0.42823,1.65257 1.21573,3.00468 1.75,3.00468 0.53428,0 0.97418,0.5625 0.97757,1.25 0.003,0.6875 0.6517,2.4875 1.4407,4 1.41244,2.70765 1.38833,2.75 -1.56518,2.75 -1.64984,0 -2.7467,-0.40939 -2.43745,-0.90976 C 139.40015,311.54352 137.88021,309 136,309 c -1.88021,0 -3.40015,2.54352 -2.44423,4.09024 0.30925,0.50037 -0.59311,0.90976 -2.00523,0.90976 -2.36879,0 -2.4701,-0.17412 -1.30901,-2.25 z m 6.99518,-6.29205 c -0.54144,-2.83235 -0.50852,-2.83685 -2.13644,0.29205 -1.01659,1.95391 -0.92107,2.25 0.72587,2.25 1.49209,0 1.79289,-0.54208 1.41057,-2.54205 z M 87,310.5 c 0,-1.13333 1.222222,-1.5 5,-1.5 3.777778,0 5,0.36667 5,1.5 0,1.13333 -1.222222,1.5 -5,1.5 -3.777778,0 -5,-0.36667 -5,-1.5 z m 0,-3.5 c 0,-0.55 2.25,-1 5,-1 2.75,0 5,0.45 5,1 0,0.55 -2.25,1 -5,1 -2.75,0 -5,-0.45 -5,-1 z M 71.5,295 c 0.339919,-0.55 0.816476,-1 1.059017,-1 C 72.801558,294 73,294.45 73,295 c 0,0.55 -0.476558,1 -1.059017,1 -0.582459,0 -0.780902,-0.45 -0.440983,-1 z m 8.5,0 c 0,-0.55 1.575,-1 3.5,-1 1.925,0 3.5,0.45 3.5,1 0,0.55 -1.575,1 -3.5,1 -1.925,0 -3.5,-0.45 -3.5,-1 z m 14,0 c 0,-0.55 1.575,-1 3.5,-1 1.925,0 3.5,0.45 3.5,1 0,0.55 -1.575,1 -3.5,1 -1.925,0 -3.5,-0.45 -3.5,-1 z m 14,0 c 0,-0.55 1.575,-1 3.5,-1 1.925,0 3.5,0.45 3.5,1 0,0.55 -1.575,1 -3.5,1 -1.925,0 -3.5,-0.45 -3.5,-1 z m 14,0 c 0,-0.55 1.575,-1 3.5,-1 1.925,0 3.5,0.45 3.5,1 0,0.55 -1.575,1 -3.5,1 -1.925,0 -3.5,-0.45 -3.5,-1 z m 14,0 c 0,-0.55 1.575,-1 3.5,-1 1.925,0 3.5,0.45 3.5,1 0,0.55 -1.575,1 -3.5,1 -1.925,0 -3.5,-0.45 -3.5,-1 z m 14,0 c 0,-0.55 1.575,-1 3.5,-1 1.925,0 3.5,0.45 3.5,1 0,0.55 -1.575,1 -3.5,1 -1.925,0 -3.5,-0.45 -3.5,-1 z m 14,0 c 0,-0.55 1.575,-1 3.5,-1 1.925,0 3.5,0.45 3.5,1 0,0.55 -1.575,1 -3.5,1 -1.925,0 -3.5,-0.45 -3.5,-1 z m 14,0 c 0,-0.55 1.575,-1 3.5,-1 1.925,0 3.5,0.45 3.5,1 0,0.55 -1.575,1 -3.5,1 -1.925,0 -3.5,-0.45 -3.5,-1 z m 14,0 c 0,-0.55 1.575,-1 3.5,-1 1.925,0 3.5,0.45 3.5,1 0,0.55 -1.575,1 -3.5,1 -1.925,0 -3.5,-0.45 -3.5,-1 z m 14,0 c 0,-0.55 1.575,-1 3.5,-1 1.925,0 3.5,0.45 3.5,1 0,0.55 -1.575,1 -3.5,1 -1.925,0 -3.5,-0.45 -3.5,-1 z m 14,0 c 0,-0.55 1.575,-1 3.5,-1 1.925,0 3.5,0.45 3.5,1 0,0.55 -1.575,1 -3.5,1 -1.925,0 -3.5,-0.45 -3.5,-1 z m 14,0 c 0,-0.55 1.575,-1 3.5,-1 1.925,0 3.5,0.45 3.5,1 0,0.55 -1.575,1 -3.5,1 -1.925,0 -3.5,-0.45 -3.5,-1 z m 14,0.2555 c 0,-0.42969 1.0125,-1.22545 2.25,-1.76837 1.39062,-0.6101 2.37086,-2.03748 2.56642,-3.73713 0.45754,-3.97644 2.18358,-3.38359 2.18358,0.75 0,4.10209 1.13006,4.49402 2.98173,1.03413 0.72584,-1.35623 1.70902,-2.22526 2.18486,-1.93117 0.47584,0.29408 0.12698,1.78434 -0.77524,3.31168 -1.40631,2.3807 -2.33612,2.8016 -6.51587,2.94953 C 250.19396,295.95908 248,295.68518 248,295.2555 Z m -6.55822,-7.77905 c -1.84672,-1.50946 -2.38342,-2.40963 -1.44178,-2.41825 2.05523,-0.0188 6.49786,3.51607 5.32782,4.2392 -0.51934,0.32097 -2.26805,-0.49846 -3.88604,-1.82095 z M 264.02224,283.25 c 0.0422,-1.42435 3.84289,-5.71821 4.48927,-5.07182 0.7776,0.7776 -2.36453,5.82182 -3.62652,5.82182 -0.48674,0 -0.87498,-0.3375 -0.86275,-0.75 z m -34.2803,-3.08186 c -1.51693,-1.00028 -2.47238,-2.10437 -2.12321,-2.45353 0.83132,-0.83133 6.38127,2.04839 6.38127,3.31107 0,1.42336 -1.15038,1.19168 -4.25806,-0.85754 z M 253,276.5 c 0,-1.925 0.45,-3.5 1,-3.5 0.55,0 1,1.575 1,3.5 0,1.925 -0.45,3.5 -1,3.5 -0.55,0 -1,-1.575 -1,-3.5 z m -34.24821,-3.34143 c -1.51152,-0.91221 -2.74902,-2.24651 -2.75,-2.96511 -0.001,-0.97168 0.76707,-0.85235 2.99821,0.46561 1.65,0.97468 3,2.35012 3,3.05654 0,0.70641 -0.1125,1.24325 -0.25,1.19296 -0.1375,-0.0503 -1.4867,-0.83778 -2.99821,-1.75 z m 53.2548,-0.90857 c 0.013,-1.48158 3.658,-6.25208 4.29233,-5.61774 0.75223,0.75222 -2.34713,6.36774 -3.51453,6.36774 -0.43141,0 -0.78142,-0.3375 -0.7778,-0.75 z m -65.28311,-7.06072 c -2.58683,-1.5696 -3.59589,-3.19694 -1.97348,-3.18269 0.4125,0.004 2.03024,0.85065 3.59497,1.88229 3.56866,2.35283 2.08027,3.54649 -1.62149,1.3004 z M 253,262.5 c 0,-1.925 0.45,-3.5 1,-3.5 0.55,0 1,1.575 1,3.5 0,1.925 -0.45,3.5 -1,3.5 -0.55,0 -1,-1.575 -1,-3.5 z m 27.02224,-2.25 c 0.0422,-1.42435 3.84289,-5.71821 4.48927,-5.07182 0.7776,0.7776 -2.36453,5.82182 -3.62652,5.82182 -0.48674,0 -0.87498,-0.3375 -0.86275,-0.75 z m -85.90827,-3.12915 c -1.31232,-1.00907 -1.96112,-2.09728 -1.44179,-2.41825 0.51934,-0.32097 2.26805,0.49846 3.88604,1.82095 3.48682,2.85002 1.20928,3.40659 -2.44425,0.5973 z M 183.25,250.26661 C 180.97701,248.74062 180.25191,247 181.88922,247 c 0.48906,0 1.91211,0.8283 3.16233,1.84066 2.81817,2.28202 1.28324,3.49694 -1.80155,1.42595 z M 253,248.5 c 0,-1.925 0.45,-3.5 1,-3.5 0.55,0 1,1.575 1,3.5 0,1.925 -0.45,3.5 -1,3.5 -0.55,0 -1,-1.575 -1,-3.5 z m 35.05384,0.5 c -0.0138,-2.21371 3.52768,-6.48613 4.31736,-5.20841 0.36156,0.58502 -0.45983,2.33373 -1.82531,3.88604 -1.6269,1.84949 -2.48592,2.30532 -2.49205,1.32237 z M 345.8,248.8 c 1.5226,-1.5226 1.58673,-8.8 0.0776,-8.8 -0.77551,0 -0.73766,-0.46364 0.12244,-1.5 2.19574,-2.6457 3,-1.62696 3,3.8 0,2.915 0.54,5.84 1.2,6.5 0.93333,0.93333 0.44444,1.2 -2.2,1.2 -2.64444,0 -3.13333,-0.26667 -2.2,-1.2 z m -17.55847,-2.05 c 0.69216,-1.2375 1.54385,-2.475 1.89265,-2.75 0.3488,-0.275 1.2488,-2.32655 2,-4.559 1.66385,-4.94469 3.10726,-5.44819 4.14441,-1.44568 0.42823,1.65257 1.21573,3.00468 1.75,3.00468 0.53428,0 0.97418,0.5625 0.97757,1.25 0.003,0.6875 0.6517,2.4875 1.4407,4 1.41244,2.70765 1.38833,2.75 -1.56518,2.75 -1.64984,0 -2.7467,-0.40939 -2.43745,-0.90976 C 337.40015,246.54352 335.88021,244 334,244 c -1.88021,0 -3.40015,2.54352 -2.44423,4.09024 0.30925,0.50037 -0.59311,0.90976 -2.00523,0.90976 -2.36879,0 -2.4701,-0.17412 -1.30901,-2.25 z m 6.99518,-6.29205 c -0.54144,-2.83235 -0.50852,-2.83685 -2.13644,0.29205 -1.01659,1.95391 -0.92107,2.25 0.72587,2.25 1.49209,0 1.79289,-0.54208 1.41057,-2.54205 z m -164.57229,1.58086 c -1.65249,-1.05772 -2.39443,-2.08764 -1.77825,-2.46846 1.16978,-0.72296 6.11383,2.14349 6.11383,3.54466 0,1.26672 -1.10294,0.99294 -4.33558,-1.0762 z M 253,234.5 c 0,-1.925 0.45,-3.5 1,-3.5 0.55,0 1,1.575 1,3.5 0,1.925 -0.45,3.5 -1,3.5 -0.55,0 -1,-1.575 -1,-3.5 z m 43,2.61078 c 0,-1.51263 3.78789,-5.65057 4.51219,-4.92917 0.3764,0.37488 -0.14737,1.82324 -1.16392,3.21857 -1.87569,2.5746 -3.34827,3.32693 -3.34827,1.7106 z M 134.5,231 c 3.26557,-3.3 6.16239,-6 6.43739,-6 0.275,0 -2.17182,2.7 -5.43739,6 -3.26557,3.3 -6.16239,6 -6.43739,6 -0.275,0 2.17182,-2.7 5.43739,-6 z m 25,3.52471 c -1.85628,-1.51768 -2.42814,-2.45437 -1.5,-2.45694 2.05214,-0.006 5.28934,2.56676 4.85446,3.8576 -0.19495,0.57867 -1.70446,-0.0516 -3.35446,-1.40066 z M 336,227.56739 V 225 h -14.8 c -10.45484,0 -15.19552,0.36699 -16.14718,1.25 -1.10223,1.02272 -1.22951,0.91694 -0.7,-0.58179 C 304.70877,224.66073 305,223.64823 305,223.41821 305,223.1882 311.975,223 320.5,223 c 15.09569,0 15.5,-0.055 15.5,-2.10699 0,-1.27677 0.49343,-1.91764 1.25226,-1.62645 0.68874,0.26429 6.15712,1.52715 12.15195,2.80634 5.99483,1.27919 10.49382,2.44766 9.99774,2.5966 -0.49607,0.14894 -5.17695,1.20023 -10.40195,2.3362 -5.225,1.13597 -10.2875,2.30473 -11.25,2.59724 -1.35035,0.41038 -1.75,-0.0545 -1.75,-2.03555 z m -188.56238,-0.61774 c -2.44816,-1.61382 -2.60439,-1.93227 -0.93762,-1.91126 2.38682,0.0301 5.98959,2.54099 4.74746,3.30867 -0.47973,0.29649 -2.19415,-0.33235 -3.80984,-1.39741 z M 142,220.28304 c 0,-0.46739 24.20276,-22.75263 53.78391,-49.52275 53.79998,-48.6875 55.98493,-50.92404 53.12074,-54.37518 -0.65066,-0.78399 -0.65848,-1.41922 -0.0223,-1.81239 0.53871,-0.33294 1.25149,-0.1652 1.58396,0.37276 0.37097,0.60023 1.49817,0.63833 2.91771,0.0986 3.61849,-1.37575 7.05189,0.83831 7.43422,4.79403 0.42345,4.38117 -1.26735,6.16187 -5.85078,6.16187 -3.59398,0 -6.45571,2.41625 -55.96152,47.25 C 151.31583,216.43939 142,224.12547 142,220.28304 Z M 253,219 c 0,-1.1 0.45,-2 1,-2 0.55,0 1,0.9 1,2 0,1.1 -0.45,2 -1,2 -0.55,0 -1,-0.9 -1,-2 z m 14,-4.5 c 0,-0.825 0.48214,-1.5 1.07143,-1.5 1.66594,0 4.36365,-3.10148 3.34075,-3.84075 -0.5017,-0.36259 -1.6924,-2.34675 -2.646,-4.40925 l -1.73382,-3.75 2.73382,0.0153 c 2.13247,0.012 2.40387,0.22855 1.23382,0.98469 -1,0.64625 -1.08333,0.97448 -0.25,0.98469 0.6875,0.008 1.25,0.71687 1.25,1.57433 0,0.85746 0.45,1.2809 1,0.94098 0.55,-0.33992 1,-1.49148 1,-2.55902 0,-1.06754 0.49814,-1.94098 1.10699,-1.94098 0.60884,0 0.85877,0.64685 0.55538,1.43745 -0.30338,0.7906 -1.02479,3.19475 -1.60313,5.34255 C 272.45822,213.72574 267,218.92166 267,214.5 Z m 11.8,0.3 c 1.5226,-1.5226 1.58673,-8.8 0.0776,-8.8 -0.77551,0 -0.73766,-0.46364 0.12244,-1.5 2.19574,-2.6457 3,-1.62696 3,3.8 0,2.915 0.54,5.84 1.2,6.5 0.93333,0.93333 0.44444,1.2 -2.2,1.2 -2.64444,0 -3.13333,-0.26667 -2.2,-1.2 z m 20.7,-0.933 c -2.84962,-2.86975 -2.87634,-14.38743 -0.0382,-16.46273 2.81793,-2.06053 3.498,-1.72332 2.1941,1.08793 -0.63575,1.37071 -1.49341,2.49571 -1.90591,2.5 -0.4125,0.004 -0.75,2.05162 -0.75,4.54961 0,3.15957 0.60868,5.19516 2,6.68856 3.50307,3.76011 2.11378,5.27594 -1.5,1.63663 z m 48.5,1.32156 c 0,-0.44629 0.9,-1.77747 2,-2.95819 1.39132,-1.4934 2,-3.52899 2,-6.68856 0,-2.49799 -0.3375,-4.54532 -0.75,-4.54961 -0.4125,-0.004 -1.27016,-1.12929 -1.90591,-2.5 -1.3039,-2.81125 -0.62383,-3.14846 2.1941,-1.08793 1.55038,1.13366 1.92444,2.66379 1.94113,7.94047 0.0173,5.46897 -0.33987,6.87248 -2.18751,8.59573 -2.3582,2.19944 -3.29181,2.55342 -3.29181,1.24809 z m -27.32814,-2.18542 c 0.64452,-0.68577 0.93387,-1.86702 0.64301,-2.625 -0.29087,-0.75797 6e-4,-1.37814 0.64769,-1.37814 1.68548,0 0.83173,4.2544 -0.96256,4.79667 -1.16234,0.35128 -1.2362,0.17265 -0.32814,-0.79353 z M 341.8,212.8 c 1.5226,-1.5226 1.58673,-8.8 0.0776,-8.8 -0.77551,0 -0.73766,-0.46364 0.12244,-1.5 2.19574,-2.6457 3,-1.62696 3,3.8 0,2.915 0.54,5.84 1.2,6.5 0.93333,0.93333 0.44444,1.2 -2.2,1.2 -2.64444,0 -3.13333,-0.26667 -2.2,-1.2 z m -35.3,-3.62899 c 1.1,-0.96935 2.56485,-2.75203 3.25522,-3.96152 1.05838,-1.85422 0.97998,-2.48108 -0.5,-3.99754 C 304.82464,196.67216 304.56987,196 307.27973,196 c 1.93872,0 2.79944,0.75425 3.70879,3.25 l 1.18417,3.25 1.59508,-3.25 c 0.98285,-2.00256 2.3401,-3.25 3.5361,-3.25 1.70306,0 1.77276,0.21287 0.56857,1.73634 -0.75484,0.95498 -2.21984,2.44763 -3.25556,3.317 -1.63076,1.36884 -1.71159,1.90117 -0.60318,3.97226 0.70397,1.31537 2.22637,3.18275 3.38312,4.14973 l 2.10318,1.75813 -2.65217,0.0333 c -2.09562,0.0263 -2.88531,-0.6355 -3.76313,-3.1536 -1.20434,-3.45477 -3.05317,-2.88175 -3.34842,1.03779 -0.12064,1.60154 -0.80831,2.1406 -2.69908,2.11581 -2.51342,-0.033 -2.51845,-0.0498 -0.5372,-1.79572 z M 327.24153,208.75 c 0.69216,-1.2375 1.54385,-2.475 1.89265,-2.75 0.3488,-0.275 1.2488,-2.32655 2,-4.559 1.66385,-4.94469 3.10726,-5.44819 4.14441,-1.44568 0.42823,1.65257 1.21573,3.00468 1.75,3.00468 0.53428,0 0.97418,0.5625 0.97757,1.25 0.003,0.6875 0.6517,2.4875 1.4407,4 1.41244,2.70765 1.38833,2.75 -1.56518,2.75 -1.64984,0 -2.7467,-0.40939 -2.43745,-0.90976 C 336.40015,208.54352 334.88021,206 333,206 c -1.88021,0 -3.40015,2.54352 -2.44423,4.09024 0.30925,0.50037 -0.59311,0.90976 -2.00523,0.90976 -2.36879,0 -2.4701,-0.17412 -1.30901,-2.25 z m 6.99518,-6.29205 c -0.54144,-2.83235 -0.50852,-2.83685 -2.13644,0.29205 -1.01659,1.95391 -0.92107,2.25 0.72587,2.25 1.49209,0 1.79289,-0.54208 1.41057,-2.54205 z M 253,206.5 c 0,-1.925 0.45,-3.5 1,-3.5 0.55,0 1,1.575 1,3.5 0,1.925 -0.45,3.5 -1,3.5 -0.55,0 -1,-1.575 -1,-3.5 z m 31,1 c 0,-1.13333 1.22222,-1.5 5,-1.5 3.77778,0 5,0.36667 5,1.5 0,1.13333 -1.22222,1.5 -5,1.5 -3.77778,0 -5,-0.36667 -5,-1.5 z m 0,-3.5 c 0,-0.55 2.25,-1 5,-1 2.75,0 5,0.45 5,1 0,0.55 -2.25,1 -5,1 -2.75,0 -5,-0.45 -5,-1 z m -31,-11.5 c 0,-1.925 0.45,-3.5 1,-3.5 0.55,0 1,1.575 1,3.5 0,1.925 -0.45,3.5 -1,3.5 -0.55,0 -1,-1.575 -1,-3.5 z m 0,-14 c 0,-1.925 0.45,-3.5 1,-3.5 0.55,0 1,1.575 1,3.5 0,1.925 -0.45,3.5 -1,3.5 -0.55,0 -1,-1.575 -1,-3.5 z m 0,-14 c 0,-1.925 0.45,-3.5 1,-3.5 0.55,0 1,1.575 1,3.5 0,1.925 -0.45,3.5 -1,3.5 -0.55,0 -1,-1.575 -1,-3.5 z m 0,-14 c 0,-1.925 0.45,-3.5 1,-3.5 0.55,0 1,1.575 1,3.5 0,1.925 -0.45,3.5 -1,3.5 -0.55,0 -1,-1.575 -1,-3.5 z m 0,-14 c 0,-1.925 0.45,-3.5 1,-3.5 0.55,0 1,1.575 1,3.5 0,1.925 -0.45,3.5 -1,3.5 -0.55,0 -1,-1.575 -1,-3.5 z m 103,-16.10564 c 0,-0.33311 1.125,-1.94263 2.5,-3.57673 1.375,-1.63409 2.5,-3.585 2.5,-4.33534 0,-2.04253 -1.89387,-2.81526 -3.5438,-1.44594 -1.74664,1.44958 -1.96646,-0.12609 -0.2562,-1.83635 1.91534,-1.91534 4.78701,-1.39266 5.76884,1.05 0.69292,1.7239 0.91921,1.84081 0.96777,0.5 0.0349,-0.9625 0.44784,-1.75 0.91771,-1.75 0.46988,0 1.53652,-2.1375 2.37031,-4.75 1.77974,-5.576411 2.83163,-5.971819 3.99039,-1.5 0.46319,1.7875 1.2793,3.25 1.81357,3.25 0.53428,0 0.97418,0.5625 0.97757,1.25 0.003,0.6875 0.6517,2.4875 1.4407,4 1.41244,2.70765 1.38833,2.75 -1.56518,2.75 -1.64984,0 -2.7467,-0.40939 -2.43745,-0.90976 C 372.40015,111.54352 370.88021,109 369,109 c -1.88021,0 -3.40015,2.54352 -2.44423,4.09024 0.30925,0.50037 -0.47679,0.9239 -1.74675,0.94118 -1.31474,0.0179 -3.13481,1.16352 -4.22677,2.6605 -1.91604,2.62673 -1.91581,2.62857 0.25,2.0622 1.46481,-0.38306 2.16775,-0.11083 2.16775,0.8395 0,0.94062 -1.15911,1.40638 -3.5,1.40638 -1.925,0 -3.5,-0.27254 -3.5,-0.60564 z m 14.23671,-14.93641 c -0.54144,-2.83235 -0.50852,-2.83685 -2.13644,0.29205 -1.01659,1.95391 -0.92107,2.25 0.72587,2.25 1.49209,0 1.79289,-0.54208 1.41057,-2.54205 z M 377,120.39436 c 0,-0.33311 1.125,-1.94263 2.5,-3.57673 1.375,-1.63409 2.5,-3.585 2.5,-4.33534 0,-2.11492 -1.91571,-2.79635 -3.70643,-1.31838 -1.36324,1.12515 -1.54427,1.11055 -1.14667,-0.0925 0.689,-2.08472 3.3336,-3.48477 5.21718,-2.76197 2.30989,0.88639 2.02995,4.91989 -0.57096,8.2264 l -2.20687,2.80559 2.20687,-0.57711 C 383.2964,118.37123 384,118.63562 384,119.59362 384,120.53424 382.84089,121 380.5,121 c -1.925,0 -3.5,-0.27254 -3.5,-0.60564 z M 307.8,118.8 c 1.5226,-1.5226 1.58673,-8.8 0.0776,-8.8 -0.77551,0 -0.73766,-0.46364 0.12244,-1.5 2.19574,-2.6457 3,-1.62696 3,3.8 0,2.915 0.54,5.84 1.2,6.5 0.93333,0.93333 0.44444,1.2 -2.2,1.2 -2.64444,0 -3.13333,-0.26667 -2.2,-1.2 z m 20,0 c 1.5226,-1.5226 1.58673,-8.8 0.0776,-8.8 -0.77551,0 -0.73766,-0.46364 0.12244,-1.5 2.19574,-2.6457 3,-1.62696 3,3.8 0,2.915 0.54,5.84 1.2,6.5 0.93333,0.93333 0.44444,1.2 -2.2,1.2 -2.64444,0 -3.13333,-0.26667 -2.2,-1.2 z m 81.2,0.19903 c 0,-0.67966 0.80307,-0.87892 2.00493,-0.49747 2.81209,0.89253 3.9515,-2.32903 1.46642,-4.14617 -1.79931,-1.31569 -1.79675,-1.39736 0.0875,-2.78807 1.51989,-1.12177 1.67906,-1.6985 0.73351,-2.65762 -0.95237,-0.96603 -1.568,-0.92741 -2.91262,0.18268 -1.4777,1.21996 -1.63971,1.20765 -1.21526,-0.0924 0.70462,-2.15816 5.6899,-2.54299 6.47397,-0.49975 0.3449,0.8988 0.14959,2.11169 -0.43402,2.6953 -0.74815,0.74815 -0.71573,1.61416 0.10992,2.93624 0.85631,1.37116 0.87713,2.34453 0.0775,3.62167 C 414.15007,119.73671 409,120.7403 409,118.99903 Z M 296,117.5 c 0,-0.825 0.48214,-1.5 1.07143,-1.5 1.66594,0 4.36365,-3.10148 3.34075,-3.84075 -0.5017,-0.36259 -1.6924,-2.34675 -2.646,-4.40925 l -1.73382,-3.75 2.73382,0.0153 c 2.13247,0.0119 2.40387,0.22855 1.23382,0.98469 -1,0.64625 -1.08333,0.97448 -0.25,0.98469 0.6875,0.008 1.25,0.71687 1.25,1.57433 0,0.85746 0.45,1.2809 1,0.94098 0.55,-0.33992 1,-1.49148 1,-2.55902 0,-1.06754 0.49814,-1.94098 1.10699,-1.94098 0.60884,0 0.85877,0.64685 0.55538,1.43745 -0.30338,0.7906 -1.02479,3.19475 -1.60313,5.34255 C 301.45822,116.72574 296,121.92166 296,117.5 Z m 49,0 c 0,-0.825 0.48214,-1.5 1.07143,-1.5 1.66594,0 4.36365,-3.10148 3.34075,-3.84075 -0.5017,-0.36259 -1.6924,-2.34675 -2.646,-4.40925 l -1.73382,-3.75 2.73382,0.0153 c 2.13247,0.0119 2.40387,0.22855 1.23382,0.98469 -1,0.64625 -1.08333,0.97448 -0.25,0.98469 0.6875,0.008 1.25,0.71687 1.25,1.57433 0,0.85746 0.45,1.2809 1,0.94098 0.55,-0.33992 1,-1.49148 1,-2.55902 0,-1.06754 0.49814,-1.94098 1.10699,-1.94098 0.60884,0 0.85877,0.64685 0.55538,1.43745 -0.30338,0.7906 -1.02479,3.19475 -1.60313,5.34255 C 350.45822,116.72574 345,121.92166 345,117.5 Z m 55,0 c 0,-0.825 0.48214,-1.5 1.07143,-1.5 1.66594,0 4.36365,-3.10148 3.34075,-3.84075 -0.5017,-0.36259 -1.6924,-2.34675 -2.646,-4.40925 l -1.73382,-3.75 2.73382,0.0153 c 2.13247,0.0119 2.40387,0.22855 1.23382,0.98469 -1,0.64625 -1.08333,0.97448 -0.25,0.98469 0.6875,0.008 1.25,0.71687 1.25,1.57433 0,0.85746 0.45,1.2809 1,0.94098 0.55,-0.33992 1,-1.49148 1,-2.55902 0,-1.06754 0.49814,-1.94098 1.10699,-1.94098 0.60884,0 0.85877,0.64685 0.55538,1.43745 -0.30338,0.7906 -1.02479,3.19475 -1.60313,5.34255 C 405.45822,116.72574 400,121.92166 400,117.5 Z m 32,0.49903 c 0,-0.67966 0.80307,-0.87892 2.00493,-0.49747 2.81209,0.89253 3.9515,-2.32903 1.46642,-4.14617 -1.79931,-1.31569 -1.79675,-1.39736 0.0875,-2.78807 1.51989,-1.12177 1.67906,-1.6985 0.73351,-2.65762 -0.95237,-0.96603 -1.568,-0.92741 -2.91262,0.18268 -1.4777,1.21996 -1.63971,1.20765 -1.21526,-0.0924 0.70462,-2.15816 5.6899,-2.54299 6.47397,-0.49975 0.3449,0.8988 0.14959,2.11169 -0.43402,2.6953 -0.74815,0.74815 -0.71573,1.61416 0.10992,2.93624 0.85631,1.37116 0.87713,2.34453 0.0775,3.62167 C 437.15007,118.73671 432,119.7403 432,117.99903 Z m -162.5,-5.82802 c 1.1,-0.96935 2.56485,-2.75203 3.25522,-3.96152 1.05838,-1.85422 0.97998,-2.48108 -0.5,-3.99754 C 267.82464,99.672161 267.56987,99 270.27973,99 c 1.93872,0 2.79944,0.754248 3.70879,3.25 l 1.18417,3.25 1.59508,-3.25 c 0.98285,-2.00256 2.3401,-3.25 3.5361,-3.25 1.70306,0 1.77276,0.212871 0.56857,1.73634 -0.75484,0.95498 -2.21984,2.44763 -3.25556,3.317 -1.63076,1.36884 -1.71159,1.90117 -0.60318,3.97226 0.70397,1.31537 2.22637,3.18275 3.38312,4.14973 l 2.10318,1.75813 -2.65217,0.0333 c -2.09562,0.0263 -2.88531,-0.6355 -3.76313,-3.1536 -1.20434,-3.45477 -3.05317,-2.88175 -3.34842,1.03779 -0.12064,1.60154 -0.80831,2.1406 -2.69908,2.11581 -2.51342,-0.033 -2.51845,-0.0498 -0.5372,-1.79572 z M 314.24153,111.75 c 0.69216,-1.2375 1.54385,-2.475 1.89265,-2.75 0.3488,-0.275 1.2488,-2.32655 2,-4.559 1.66385,-4.944688 3.10726,-5.44819 4.14441,-1.44568 0.42823,1.65257 1.21573,3.00468 1.75,3.00468 0.53428,0 0.97418,0.5625 0.97757,1.25 0.003,0.6875 0.6517,2.4875 1.4407,4 1.41244,2.70765 1.38833,2.75 -1.56518,2.75 -1.64984,0 -2.7467,-0.40939 -2.43745,-0.90976 C 323.40015,111.54352 321.88021,109 320,109 c -1.88021,0 -3.40015,2.54352 -2.44423,4.09024 0.30925,0.50037 -0.59311,0.90976 -2.00523,0.90976 -2.36879,0 -2.4701,-0.17412 -1.30901,-2.25 z m 6.99518,-6.29205 c -0.54144,-2.83235 -0.50852,-2.83685 -2.13644,0.29205 -1.01659,1.95391 -0.92107,2.25 0.72587,2.25 1.49209,0 1.79289,-0.54208 1.41057,-2.54205 z m 97.00482,6.29205 c 0.69216,-1.2375 1.54385,-2.475 1.89265,-2.75 0.3488,-0.275 1.2488,-2.32655 2,-4.559 1.66385,-4.944688 3.10726,-5.44819 4.14441,-1.44568 0.42823,1.65257 1.21573,3.00468 1.75,3.00468 0.53428,0 0.97418,0.5625 0.97757,1.25 0.003,0.6875 0.6517,2.4875 1.4407,4 1.41244,2.70765 1.38833,2.75 -1.56518,2.75 -1.64984,0 -2.7467,-0.40939 -2.43745,-0.90976 C 427.40015,111.54352 425.88021,109 424,109 c -1.88021,0 -3.40015,2.54352 -2.44423,4.09024 0.30925,0.50037 -0.59311,0.90976 -2.00523,0.90976 -2.36879,0 -2.4701,-0.17412 -1.30901,-2.25 z m 6.99518,-6.29205 c -0.54144,-2.83235 -0.50852,-2.83685 -2.13644,0.29205 -1.01659,1.95391 -0.92107,2.25 0.72587,2.25 1.49209,0 1.79289,-0.54208 1.41057,-2.54205 z M 339,111 c 0,-1.33333 -0.66667,-2 -2,-2 -1.1,0 -2,-0.45 -2,-1 0,-0.55 0.9,-1 2,-1 1.11111,0 2,-0.66667 2,-1.5 0,-0.825 0.45,-1.5 1,-1.5 0.55,0 1,0.675 1,1.5 0,0.825 0.675,1.5 1.5,1.5 0.825,0 1.5,0.45 1.5,1 0,0.55 -0.675,1 -1.5,1 -0.83333,0 -1.5,0.88889 -1.5,2 0,1.1 -0.45,2 -1,2 -0.55,0 -1,-0.9 -1,-2 z m 49,0 c 0,-1.33333 -0.66667,-2 -2,-2 -1.1,0 -2,-0.45 -2,-1 0,-0.55 0.9,-1 2,-1 1.11111,0 2,-0.66667 2,-1.5 0,-0.825 0.45,-1.5 1,-1.5 0.55,0 1,0.675 1,1.5 0,0.825 0.675,1.5 1.5,1.5 0.825,0 1.5,0.45 1.5,1 0,0.55 -0.675,1 -1.5,1 -0.83333,0 -1.5,0.88889 -1.5,2 0,1.1 -0.45,2 -1,2 -0.55,0 -1,-0.9 -1,-2 z m -149.55822,-1.52355 c -1.84672,-1.50946 -2.38342,-2.40963 -1.44178,-2.41825 2.05523,-0.0188 6.49786,3.51607 5.32782,4.2392 -0.51934,0.32097 -2.26805,-0.49846 -3.88604,-1.82095 z M 284,110.5 c 0,-1.13333 1.22222,-1.5 5,-1.5 3.77778,0 5,0.36667 5,1.5 0,1.13333 -1.22222,1.5 -5,1.5 -3.77778,0 -5,-0.36667 -5,-1.5 z m 0,-3.5 c 0,-0.55 2.25,-1 5,-1 2.75,0 5,0.45 5,1 0,0.55 -2.25,1 -5,1 -2.75,0 -5,-0.45 -5,-1 z m -57.25806,-4.83186 c -1.51693,-1.00028 -2.47238,-2.10437 -2.12321,-2.453532 C 225.45005,98.88328 231,101.763 231,103.02568 c 0,1.42336 -1.15038,1.19168 -4.25806,-0.85754 z m -10.99015,-7.009566 c -1.51152,-0.912216 -2.74902,-2.246515 -2.75,-2.96511 -0.001,-0.971688 0.76707,-0.852359 2.99821,0.465607 1.65,0.974679 3,2.350121 3,3.056537 0,0.706415 -0.1125,1.24325 -0.25,1.192966 -0.1375,-0.05028 -1.4867,-0.837784 -2.99821,-1.75 z m -12.02831,-7.969295 c -2.58683,-1.569598 -3.59589,-3.196944 -1.97348,-3.18269 0.4125,0.0036 2.03024,0.850654 3.59497,1.882288 3.56866,2.352831 2.08027,3.546494 -1.62149,1.300402 z m -12.60951,-8.068425 c -1.31232,-1.009072 -1.96112,-2.097285 -1.44179,-2.418252 0.51934,-0.320968 2.26805,0.498458 3.88604,1.820947 3.48682,2.850024 1.20928,3.40659 -2.44425,0.597305 z M 180.25,72.266608 C 177.97701,70.740622 177.25191,69 178.88922,69 c 0.48906,0 1.91211,0.828296 3.16233,1.840657 2.81817,2.282022 1.28324,3.496945 -1.80155,1.425951 z M 56,65.999035 c 0,-0.679664 0.803071,-0.878926 2.004926,-0.497472 2.812098,0.892526 3.951505,-2.329035 1.466424,-4.146171 -1.799314,-1.31569 -1.79675,-1.397358 0.08752,-2.788071 1.519885,-1.121774 1.679065,-1.698504 0.733512,-2.657619 -0.952369,-0.966028 -1.567998,-0.927416 -2.912622,0.18268 C 55.902004,57.31239 55.740859,57.300077 56.170712,56 56.454667,55.141187 57.806555,54.526716 59.333333,54.5625 70.569837,54.825856 72,55.044614 72,56.5 c 0,1.126437 -1.203704,1.5 -4.833333,1.5 -5.64621,0 -6.476518,0.530987 -4.865106,3.111267 0.867036,1.388346 0.891197,2.363043 0.09028,3.642189 C 61.150067,66.736706 56,67.740299 56,65.999035 Z m 111.66442,-1.960226 c -1.65249,-1.057722 -2.39443,-2.08764 -1.77825,-2.468461 C 167.05595,60.847387 172,63.713839 172,65.11501 c 0,1.266719 -1.10294,0.992941 -4.33558,-1.076201 z M 45,63.5 c 0,-0.825 0.482143,-1.5 1.071429,-1.5 1.665938,0 4.363656,-3.101477 3.34075,-3.840751 C 48.910481,57.796662 47.71978,55.8125 46.766179,53.75 L 45.032357,50 47.766179,50.01531 C 49.898652,50.027257 50.170051,50.243855 49,51 c -1,0.64625 -1.083333,0.974479 -0.25,0.984687 0.6875,0.0084 1.25,0.716871 1.25,1.57433 0,0.857459 0.45,1.280902 1,0.940983 0.55,-0.339919 1,-1.491476 1,-2.559017 C 52,50.873442 52.498145,50 53.106989,50 c 0.608844,0 0.858767,0.646854 0.555386,1.437454 -0.303382,0.7906 -1.024793,3.194746 -1.603135,5.342547 C 50.458219,62.725738 45,67.921655 45,63.5 Z M 77.5,62.867002 C 74.650384,59.99725 74.623664,48.47957 77.461808,46.404268 c 2.817934,-2.060523 3.498001,-1.723317 2.194107,1.08793 -0.635753,1.370709 -1.493415,2.495709 -1.905915,2.5 -0.4125,0.0043 -0.75,2.051618 -0.75,4.549615 0,3.159565 0.608677,5.195152 2,6.688562 3.503069,3.760103 2.113777,5.275938 -1.5,1.636627 z m 48.5,1.321559 c 0,-0.446291 0.9,-1.777475 2,-2.958186 1.39132,-1.49341 2,-3.528997 2,-6.688562 0,-2.497997 -0.3375,-4.545324 -0.75,-4.549615 -0.4125,-0.0043 -1.27016,-1.129291 -1.90591,-2.5 -1.3039,-2.811247 -0.62383,-3.148453 2.1941,-1.08793 1.55038,1.133666 1.92444,2.663793 1.94113,7.940469 0.0173,5.468978 -0.33987,6.872478 -2.18751,8.595732 C 126.93361,65.139914 126,65.493894 126,64.188561 Z M 98.671855,62.003145 c 0.64452,-0.68577 0.933875,-1.86702 0.643011,-2.625 C 99.024002,58.620165 99.315465,58 99.962562,58 101.64804,58 100.79429,62.254403 99,62.796672 c -1.162336,0.35128 -1.236205,0.172649 -0.328145,-0.793527 z M 119,61.999035 c 0,-0.679664 0.80307,-0.878926 2.00493,-0.497472 2.81209,0.892526 3.9515,-2.329035 1.46642,-4.146171 -1.79931,-1.31569 -1.79675,-1.397358 0.0875,-2.788071 1.51989,-1.121774 1.67906,-1.698504 0.73351,-2.657619 -0.95237,-0.966028 -1.568,-0.927416 -2.91262,0.18268 -1.4777,1.219961 -1.63971,1.207646 -1.21526,-0.09238 0.70462,-2.158159 5.6899,-2.542994 6.47397,-0.499754 0.3449,0.898804 0.14959,2.11169 -0.43402,2.695302 -0.74815,0.74815 -0.71573,1.614158 0.10992,2.936238 0.85631,1.371161 0.87713,2.344533 0.0775,3.62167 C 124.15007,62.736706 119,63.740299 119,61.999035 Z M 84.5,58.171009 c 1.1,-0.969349 2.564847,-2.752031 3.255216,-3.961515 1.058386,-1.854226 0.97998,-2.481082 -0.5,-3.997543 C 82.824638,45.672161 82.569869,45 85.27973,45 c 1.938715,0 2.799438,0.754248 3.70879,3.25 l 1.184171,3.25 1.595081,-3.25 C 92.750619,46.247436 94.107867,45 95.303871,45 c 1.703054,0 1.77276,0.212871 0.568574,1.736338 -0.754845,0.954985 -2.219849,2.447637 -3.255565,3.317003 -1.630756,1.368834 -1.711591,1.901174 -0.60318,3.972258 0.703968,1.315376 2.226372,3.182753 3.383121,4.149727 L 97.5,59.933461 l -2.652175,0.03327 c -2.095612,0.02629 -2.885309,-0.635501 -3.763125,-3.153606 -1.204337,-3.454762 -3.053174,-2.881743 -3.348423,1.037794 -0.120641,1.601542 -0.808308,2.140605 -2.699081,2.115812 C 82.523781,59.933773 82.518746,59.916942 84.5,58.171009 Z M 105.24153,57.75 c 0.69216,-1.2375 1.54385,-2.475 1.89265,-2.75 0.3488,-0.275 1.2488,-2.32655 2,-4.559001 1.66385,-4.944687 3.10726,-5.448189 4.14441,-1.445683 0.42823,1.652576 1.21573,3.004684 1.75,3.004684 0.53428,0 0.97418,0.5625 0.97757,1.25 0.003,0.6875 0.6517,2.4875 1.4407,4 1.41244,2.707647 1.38833,2.75 -1.56518,2.75 -1.64984,0 -2.7467,-0.409391 -2.43745,-0.909758 C 114.40015,57.543523 112.88021,55 111,55 c -1.88021,0 -3.40015,2.543523 -2.44423,4.090242 C 108.86502,59.590609 107.96266,60 106.55054,60 c -2.36879,0 -2.4701,-0.174123 -1.30901,-2.25 z m 6.99518,-6.292051 c -0.54144,-2.83235 -0.50852,-2.836849 -2.13644,0.292051 -1.01659,1.953913 -0.92107,2.25 0.72587,2.25 1.49209,0 1.79289,-0.542084 1.41057,-2.542051 z M 156.5,56.524711 c -1.85628,-1.517683 -2.42814,-2.454371 -1.5,-2.456945 2.05214,-0.0057 5.28934,2.566763 4.85446,3.857607 C 159.65951,58.504041 158.15,57.873743 156.5,56.524711 Z M 62,53 c 0,-0.55 2.25,-1 5,-1 2.75,0 5,0.45 5,1 0,0.55 -2.25,1 -5,1 -2.75,0 -5,-0.45 -5,-1 z m 82.72348,-3.810721 c -2.58683,-1.569598 -3.59589,-3.196944 -1.97348,-3.18269 0.4125,0.0036 2.03024,0.850654 3.59497,1.882288 3.56866,2.352831 2.08027,3.546494 -1.62149,1.300402 z M 139,37 c 0,-9.817127 -0.0428,-10 -2.33956,-10 h -2.33956 l 3.06722,-10.567022 c 1.68697,-5.811862 3.19629,-10.1798002 3.35405,-9.7065294 0.15776,0.4732707 1.34279,5.2284304 2.63342,10.5670214 L 145.72215,27 h -2.36107 C 141.03705,27 141,27.156905 141,37 c 0,6 -0.4,10 -1,10 -0.6,0 -1,-4 -1,-10 z m 32,-11.000965 c 0,-0.679664 0.80307,-0.878926 2.00493,-0.497472 2.81209,0.892526 3.9515,-2.329035 1.46642,-4.146171 -1.79931,-1.31569 -1.79675,-1.397358 0.0875,-2.788071 1.51989,-1.121774 1.67906,-1.698504 0.73351,-2.657619 -0.95237,-0.966028 -1.568,-0.927416 -2.91262,0.18268 -1.4777,1.219961 -1.63971,1.207646 -1.21526,-0.09238 0.70462,-2.158159 5.6899,-2.542994 6.47397,-0.499754 0.3449,0.898804 0.14959,2.11169 -0.43402,2.695302 -0.74815,0.74815 -0.71573,1.614158 0.10992,2.936238 0.85631,1.371161 0.87713,2.344533 0.0775,3.62167 C 176.15007,26.736706 171,27.740299 171,25.999035 Z M 155.24153,22.75 c 0.69216,-1.2375 1.54385,-2.475 1.89265,-2.75 0.3488,-0.275 1.2488,-2.32655 2,-4.559001 1.66385,-4.944687 3.10726,-5.4481891 4.14441,-1.445683 0.42823,1.652576 1.21573,3.004684 1.75,3.004684 0.53428,0 0.97418,0.5625 0.97757,1.25 0.003,0.6875 0.6517,2.4875 1.4407,4 1.41244,2.707647 1.38833,2.75 -1.56518,2.75 -1.64984,0 -2.7467,-0.409391 -2.43745,-0.909758 C 164.40015,22.543523 162.88021,20 161,20 c -1.88021,0 -3.40015,2.543523 -2.44423,4.090242 C 158.86502,24.590609 157.96266,25 156.55054,25 c -2.36879,0 -2.4701,-0.174123 -1.30901,-2.25 z m 6.99518,-6.292051 c -0.54144,-2.83235 -0.50852,-2.836849 -2.13644,0.292051 -1.01659,1.953913 -0.92107,2.25 0.72587,2.25 1.49209,0 1.79289,-0.542084 1.41057,-2.542051 z"
       style="fill:#fe0000" />
    <path
       id="path22"
       d="m 27.06557,335.98132 c 0.861064,-1.36473 3.731137,-5.98646 6.37794,-10.27052 4.395126,-7.11387 4.956957,-7.65836 6.480001,-6.28002 1.518979,1.37466 2.727138,0.44691 13.553468,-10.4077 6.53721,-6.55428 12.303229,-11.65892 12.813376,-11.34363 0.510147,0.31529 -4.608356,6.12247 -11.374451,12.90485 -11.886861,11.91547 -12.243327,12.39642 -10.56354,14.25256 1.680686,1.85714 1.545884,2.0289 -4.056957,5.16927 C 37.107933,331.79269 32.475,334.42627 30,335.85853 l -4.5,2.60411 z M 79,321.39436 c 0,-0.33311 1.125,-1.94263 2.5,-3.57673 1.375,-1.63409 2.5,-3.585 2.5,-4.33534 0,-2.11492 -1.915712,-2.79635 -3.706426,-1.31838 -1.36324,1.12515 -1.544276,1.11055 -1.146676,-0.0925 0.689002,-2.08472 3.333604,-3.48477 5.217179,-2.76197 2.309895,0.88639 2.02995,4.91989 -0.570954,8.2264 l -2.206877,2.80559 2.206877,-0.57711 C 85.296401,319.37123 86,319.63562 86,320.59362 86,321.53424 84.840895,322 82.5,322 80.575,322 79,321.72746 79,321.39436 Z m 64,-2 c 0,-0.33311 1.125,-1.94263 2.5,-3.57673 1.375,-1.63409 2.5,-3.585 2.5,-4.33534 0,-2.11492 -1.91571,-2.79635 -3.70643,-1.31838 -1.36324,1.12515 -1.54427,1.11055 -1.14667,-0.0925 0.689,-2.08472 3.3336,-3.48477 5.21718,-2.76197 2.30989,0.88639 2.02995,4.91989 -0.57096,8.2264 l -2.20687,2.80559 2.20687,-0.57711 C 149.2964,317.37123 150,317.63562 150,318.59362 150,319.53424 148.84089,320 146.5,320 c -1.925,0 -3.5,-0.27254 -3.5,-0.60564 z m -115,-1 c 0,-0.33311 1.125,-1.94263 2.5,-3.57673 1.375,-1.63409 2.5,-3.585 2.5,-4.33534 0,-2.11492 -1.915712,-2.79635 -3.706426,-1.31838 -1.36324,1.12515 -1.544276,1.11055 -1.146676,-0.0925 0.689002,-2.08472 3.333604,-3.48477 5.217179,-2.76197 2.309895,0.88639 2.02995,4.91989 -0.570954,8.2264 l -2.206877,2.80559 2.206877,-0.57711 C 34.296401,316.37123 35,316.63562 35,317.59362 35,318.53424 33.840895,319 31.5,319 29.575,319 28,318.72746 28,318.39436 Z M 70,317.5 c 0,-0.825 0.482143,-1.5 1.071429,-1.5 1.665938,0 4.363656,-3.10148 3.34075,-3.84075 -0.501698,-0.36259 -1.692399,-2.34675 -2.646,-4.40925 l -1.733822,-3.75 2.733822,0.0153 c 2.132473,0.012 2.403872,0.22855 1.233821,0.98469 -1,0.64625 -1.083333,0.97448 -0.25,0.98469 0.6875,0.008 1.25,0.71687 1.25,1.57433 0,0.85746 0.45,1.2809 1,0.94098 0.55,-0.33992 1,-1.49148 1,-2.55902 C 77,304.87344 77.498145,304 78.106989,304 c 0.608844,0 0.858767,0.64685 0.555386,1.43745 -0.303382,0.7906 -1.024793,3.19475 -1.603135,5.34255 C 75.458219,316.72574 70,321.92166 70,317.5 Z m 32.5,-0.633 c -2.849616,-2.86975 -2.876336,-14.38743 -0.0382,-16.46273 2.81793,-2.06053 3.498,-1.72332 2.1941,1.08793 -0.63575,1.37071 -1.49341,2.49571 -1.90591,2.5 -0.4125,0.004 -0.75,2.05162 -0.75,4.54961 0,3.15957 0.60868,5.19516 2,6.68856 3.50307,3.76011 2.11378,5.27594 -1.5,1.63663 z m 48.5,1.32156 c 0,-0.44629 0.9,-1.77747 2,-2.95819 1.39132,-1.4934 2,-3.52899 2,-6.68856 0,-2.49799 -0.3375,-4.54532 -0.75,-4.54961 -0.4125,-0.004 -1.27016,-1.12929 -1.90591,-2.5 -1.3039,-2.81125 -0.62383,-3.14846 2.1941,-1.08793 1.55038,1.13366 1.92444,2.66379 1.94113,7.94047 0.0173,5.46897 -0.33987,6.87248 -2.18751,8.59573 C 151.93361,319.13991 151,319.49389 151,318.18856 Z M 12.241526,314.75 c 0.692161,-1.2375 1.543856,-2.475 1.892656,-2.75 0.3488,-0.275 1.2488,-2.32655 2,-4.559 1.663844,-4.94469 3.107257,-5.44819 4.14441,-1.44568 0.428225,1.65257 1.215725,3.00468 1.75,3.00468 0.534274,0 0.97418,0.5625 0.977569,1.25 0.0034,0.6875 0.651702,2.4875 1.440697,4 1.412442,2.70765 1.388337,2.75 -1.565178,2.75 -1.649843,0 -2.746696,-0.40939 -2.437453,-0.90976 C 21.400152,314.54352 19.880206,312 18,312 c -1.880206,0 -3.400152,2.54352 -2.444227,4.09024 0.309243,0.50037 -0.59311,0.90976 -2.00523,0.90976 -2.368798,0 -2.4701,-0.17412 -1.309017,-2.25 z m 6.995186,-6.29205 c -0.541438,-2.83235 -0.508525,-2.83685 -2.136441,0.29205 -1.016589,1.95391 -0.921069,2.25 0.725873,2.25 1.492087,0 1.792886,-0.54208 1.410568,-2.54205 z m 104.435148,7.54519 c 0.64452,-0.68577 0.93387,-1.86702 0.64301,-2.625 -0.29087,-0.75797 6e-4,-1.37814 0.64769,-1.37814 1.68548,0 0.83173,4.2544 -0.96256,4.79667 -1.16234,0.35128 -1.2362,0.17265 -0.32814,-0.79353 z M 109.5,312.17101 c 1.1,-0.96935 2.56485,-2.75203 3.25522,-3.96152 1.05838,-1.85422 0.97998,-2.48108 -0.5,-3.99754 C 107.82464,299.67216 107.56987,299 110.27973,299 c 1.93872,0 2.79944,0.75425 3.70879,3.25 l 1.18417,3.25 1.59508,-3.25 c 0.98285,-2.00256 2.3401,-3.25 3.5361,-3.25 1.70306,0 1.77276,0.21287 0.56857,1.73634 -0.75484,0.95498 -2.21984,2.44763 -3.25556,3.317 -1.63076,1.36884 -1.71159,1.90117 -0.60318,3.97226 0.70397,1.31537 2.22637,3.18275 3.38312,4.14973 l 2.10318,1.75813 -2.65217,0.0333 c -2.09562,0.0263 -2.88531,-0.6355 -3.76313,-3.1536 -1.20434,-3.45477 -3.05317,-2.88175 -3.34842,1.03779 -0.12064,1.60154 -0.80831,2.1406 -2.69908,2.11581 -2.51342,-0.033 -2.51845,-0.0498 -0.5372,-1.79572 z M 130.24153,311.75 c 0.69216,-1.2375 1.54385,-2.475 1.89265,-2.75 0.3488,-0.275 1.2488,-2.32655 2,-4.559 1.66385,-4.94469 3.10726,-5.44819 4.14441,-1.44568 0.42823,1.65257 1.21573,3.00468 1.75,3.00468 0.53428,0 0.97418,0.5625 0.97757,1.25 0.003,0.6875 0.6517,2.4875 1.4407,4 1.41244,2.70765 1.38833,2.75 -1.56518,2.75 -1.64984,0 -2.7467,-0.40939 -2.43745,-0.90976 C 139.40015,311.54352 137.88021,309 136,309 c -1.88021,0 -3.40015,2.54352 -2.44423,4.09024 0.30925,0.50037 -0.59311,0.90976 -2.00523,0.90976 -2.36879,0 -2.4701,-0.17412 -1.30901,-2.25 z m 6.99518,-6.29205 c -0.54144,-2.83235 -0.50852,-2.83685 -2.13644,0.29205 -1.01659,1.95391 -0.92107,2.25 0.72587,2.25 1.49209,0 1.79289,-0.54208 1.41057,-2.54205 z M 87,310.5 c 0,-1.13333 1.222222,-1.5 5,-1.5 3.777778,0 5,0.36667 5,1.5 0,1.13333 -1.222222,1.5 -5,1.5 -3.777778,0 -5,-0.36667 -5,-1.5 z m 0,-3.5 c 0,-0.55 2.25,-1 5,-1 2.75,0 5,0.45 5,1 0,0.55 -2.25,1 -5,1 -2.75,0 -5,-0.45 -5,-1 z M 71.5,295 c 0.339919,-0.55 0.816476,-1 1.059017,-1 C 72.801558,294 73,294.45 73,295 c 0,0.55 -0.476558,1 -1.059017,1 -0.582459,0 -0.780902,-0.45 -0.440983,-1 z m 8.5,0 c 0,-0.55 1.575,-1 3.5,-1 1.925,0 3.5,0.45 3.5,1 0,0.55 -1.575,1 -3.5,1 -1.925,0 -3.5,-0.45 -3.5,-1 z m 14,0 c 0,-0.55 1.575,-1 3.5,-1 1.925,0 3.5,0.45 3.5,1 0,0.55 -1.575,1 -3.5,1 -1.925,0 -3.5,-0.45 -3.5,-1 z m 14,0 c 0,-0.55 1.575,-1 3.5,-1 1.925,0 3.5,0.45 3.5,1 0,0.55 -1.575,1 -3.5,1 -1.925,0 -3.5,-0.45 -3.5,-1 z m 14,0 c 0,-0.55 1.575,-1 3.5,-1 1.925,0 3.5,0.45 3.5,1 0,0.55 -1.575,1 -3.5,1 -1.925,0 -3.5,-0.45 -3.5,-1 z m 14,0 c 0,-0.55 1.575,-1 3.5,-1 1.925,0 3.5,0.45 3.5,1 0,0.55 -1.575,1 -3.5,1 -1.925,0 -3.5,-0.45 -3.5,-1 z m 14,0 c 0,-0.55 1.575,-1 3.5,-1 1.925,0 3.5,0.45 3.5,1 0,0.55 -1.575,1 -3.5,1 -1.925,0 -3.5,-0.45 -3.5,-1 z m 14,0 c 0,-0.55 1.575,-1 3.5,-1 1.925,0 3.5,0.45 3.5,1 0,0.55 -1.575,1 -3.5,1 -1.925,0 -3.5,-0.45 -3.5,-1 z m 14,0 c 0,-0.55 1.575,-1 3.5,-1 1.925,0 3.5,0.45 3.5,1 0,0.55 -1.575,1 -3.5,1 -1.925,0 -3.5,-0.45 -3.5,-1 z m 14,0 c 0,-0.55 1.575,-1 3.5,-1 1.925,0 3.5,0.45 3.5,1 0,0.55 -1.575,1 -3.5,1 -1.925,0 -3.5,-0.45 -3.5,-1 z m 14,0 c 0,-0.55 1.575,-1 3.5,-1 1.925,0 3.5,0.45 3.5,1 0,0.55 -1.575,1 -3.5,1 -1.925,0 -3.5,-0.45 -3.5,-1 z m 14,0 c 0,-0.55 1.575,-1 3.5,-1 1.925,0 3.5,0.45 3.5,1 0,0.55 -1.575,1 -3.5,1 -1.925,0 -3.5,-0.45 -3.5,-1 z m 14,0 c 0,-0.55 1.575,-1 3.5,-1 1.925,0 3.5,0.45 3.5,1 0,0.55 -1.575,1 -3.5,1 -1.925,0 -3.5,-0.45 -3.5,-1 z m 14,0.2555 c 0,-0.42969 1.0125,-1.22545 2.25,-1.76837 1.39062,-0.6101 2.37086,-2.03748 2.56642,-3.73713 0.45754,-3.97644 2.18358,-3.38359 2.18358,0.75 0,4.10209 1.13006,4.49402 2.98173,1.03413 0.72584,-1.35623 1.70902,-2.22526 2.18486,-1.93117 0.47584,0.29408 0.12698,1.78434 -0.77524,3.31168 -1.40631,2.3807 -2.33612,2.8016 -6.51587,2.94953 C 250.19396,295.95908 248,295.68518 248,295.2555 Z m -6.55822,-7.77905 c -1.84672,-1.50946 -2.38342,-2.40963 -1.44178,-2.41825 2.05523,-0.0188 6.49786,3.51607 5.32782,4.2392 -0.51934,0.32097 -2.26805,-0.49846 -3.88604,-1.82095 z M 264.02224,283.25 c 0.0422,-1.42435 3.84289,-5.71821 4.48927,-5.07182 0.7776,0.7776 -2.36453,5.82182 -3.62652,5.82182 -0.48674,0 -0.87498,-0.3375 -0.86275,-0.75 z m -34.2803,-3.08186 c -1.51693,-1.00028 -2.47238,-2.10437 -2.12321,-2.45353 0.83132,-0.83133 6.38127,2.04839 6.38127,3.31107 0,1.42336 -1.15038,1.19168 -4.25806,-0.85754 z M 253,276.5 c 0,-1.925 0.45,-3.5 1,-3.5 0.55,0 1,1.575 1,3.5 0,1.925 -0.45,3.5 -1,3.5 -0.55,0 -1,-1.575 -1,-3.5 z m -34.24821,-3.34143 c -1.51152,-0.91221 -2.74902,-2.24651 -2.75,-2.96511 -0.001,-0.97168 0.76707,-0.85235 2.99821,0.46561 1.65,0.97468 3,2.35012 3,3.05654 0,0.70641 -0.1125,1.24325 -0.25,1.19296 -0.1375,-0.0503 -1.4867,-0.83778 -2.99821,-1.75 z m 53.2548,-0.90857 c 0.013,-1.48158 3.658,-6.25208 4.29233,-5.61774 0.75223,0.75222 -2.34713,6.36774 -3.51453,6.36774 -0.43141,0 -0.78142,-0.3375 -0.7778,-0.75 z m -65.28311,-7.06072 c -2.58683,-1.5696 -3.59589,-3.19694 -1.97348,-3.18269 0.4125,0.004 2.03024,0.85065 3.59497,1.88229 3.56866,2.35283 2.08027,3.54649 -1.62149,1.3004 z M 253,262.5 c 0,-1.925 0.45,-3.5 1,-3.5 0.55,0 1,1.575 1,3.5 0,1.925 -0.45,3.5 -1,3.5 -0.55,0 -1,-1.575 -1,-3.5 z m 27.02224,-2.25 c 0.0422,-1.42435 3.84289,-5.71821 4.48927,-5.07182 0.7776,0.7776 -2.36453,5.82182 -3.62652,5.82182 -0.48674,0 -0.87498,-0.3375 -0.86275,-0.75 z m -85.90827,-3.12915 c -1.31232,-1.00907 -1.96112,-2.09728 -1.44179,-2.41825 0.51934,-0.32097 2.26805,0.49846 3.88604,1.82095 3.48682,2.85002 1.20928,3.40659 -2.44425,0.5973 z M 183.25,250.26661 C 180.97701,248.74062 180.25191,247 181.88922,247 c 0.48906,0 1.91211,0.8283 3.16233,1.84066 2.81817,2.28202 1.28324,3.49694 -1.80155,1.42595 z M 253,248.5 c 0,-1.925 0.45,-3.5 1,-3.5 0.55,0 1,1.575 1,3.5 0,1.925 -0.45,3.5 -1,3.5 -0.55,0 -1,-1.575 -1,-3.5 z m 35.05384,0.5 c -0.0138,-2.21371 3.52768,-6.48613 4.31736,-5.20841 0.36156,0.58502 -0.45983,2.33373 -1.82531,3.88604 -1.6269,1.84949 -2.48592,2.30532 -2.49205,1.32237 z M 345.8,248.8 c 1.5226,-1.5226 1.58673,-8.8 0.0776,-8.8 -0.77551,0 -0.73766,-0.46364 0.12244,-1.5 2.19574,-2.6457 3,-1.62696 3,3.8 0,2.915 0.54,5.84 1.2,6.5 0.93333,0.93333 0.44444,1.2 -2.2,1.2 -2.64444,0 -3.13333,-0.26667 -2.2,-1.2 z m -17.55847,-2.05 c 0.69216,-1.2375 1.54385,-2.475 1.89265,-2.75 0.3488,-0.275 1.2488,-2.32655 2,-4.559 1.66385,-4.94469 3.10726,-5.44819 4.14441,-1.44568 0.42823,1.65257 1.21573,3.00468 1.75,3.00468 0.53428,0 0.97418,0.5625 0.97757,1.25 0.003,0.6875 0.6517,2.4875 1.4407,4 1.41244,2.70765 1.38833,2.75 -1.56518,2.75 -1.64984,0 -2.7467,-0.40939 -2.43745,-0.90976 C 337.40015,246.54352 335.88021,244 334,244 c -1.88021,0 -3.40015,2.54352 -2.44423,4.09024 0.30925,0.50037 -0.59311,0.90976 -2.00523,0.90976 -2.36879,0 -2.4701,-0.17412 -1.30901,-2.25 z m 6.99518,-6.29205 c -0.54144,-2.83235 -0.50852,-2.83685 -2.13644,0.29205 -1.01659,1.95391 -0.92107,2.25 0.72587,2.25 1.49209,0 1.79289,-0.54208 1.41057,-2.54205 z m -164.57229,1.58086 c -1.65249,-1.05772 -2.39443,-2.08764 -1.77825,-2.46846 1.16978,-0.72296 6.11383,2.14349 6.11383,3.54466 0,1.26672 -1.10294,0.99294 -4.33558,-1.0762 z M 253,234.5 c 0,-1.925 0.45,-3.5 1,-3.5 0.55,0 1,1.575 1,3.5 0,1.925 -0.45,3.5 -1,3.5 -0.55,0 -1,-1.575 -1,-3.5 z m 43,2.61078 c 0,-1.51263 3.78789,-5.65057 4.51219,-4.92917 0.3764,0.37488 -0.14737,1.82324 -1.16392,3.21857 -1.87569,2.5746 -3.34827,3.32693 -3.34827,1.7106 z M 134.5,231 c 3.26557,-3.3 6.16239,-6 6.43739,-6 0.275,0 -2.17182,2.7 -5.43739,6 -3.26557,3.3 -6.16239,6 -6.43739,6 -0.275,0 2.17182,-2.7 5.43739,-6 z m 25,3.52471 c -1.85628,-1.51768 -2.42814,-2.45437 -1.5,-2.45694 2.05214,-0.006 5.28934,2.56676 4.85446,3.8576 -0.19495,0.57867 -1.70446,-0.0516 -3.35446,-1.40066 z M 336,227.56739 V 225 h -14.8 c -10.45484,0 -15.19552,0.36699 -16.14718,1.25 -1.10223,1.02272 -1.22951,0.91694 -0.7,-0.58179 C 304.70877,224.66073 305,223.64823 305,223.41821 305,223.1882 311.975,223 320.5,223 c 15.09569,0 15.5,-0.055 15.5,-2.10699 0,-1.27677 0.49343,-1.91764 1.25226,-1.62645 0.68874,0.26429 6.15712,1.52715 12.15195,2.80634 5.99483,1.27919 10.49382,2.44766 9.99774,2.5966 -0.49607,0.14894 -5.17695,1.20023 -10.40195,2.3362 -5.225,1.13597 -10.2875,2.30473 -11.25,2.59724 -1.35035,0.41038 -1.75,-0.0545 -1.75,-2.03555 z m -188.56238,-0.61774 c -2.44816,-1.61382 -2.60439,-1.93227 -0.93762,-1.91126 2.38682,0.0301 5.98959,2.54099 4.74746,3.30867 -0.47973,0.29649 -2.19415,-0.33235 -3.80984,-1.39741 z M 253,219 c 0,-1.1 0.45,-2 1,-2 0.55,0 1,0.9 1,2 0,1.1 -0.45,2 -1,2 -0.55,0 -1,-0.9 -1,-2 z m 14,-4.5 c 0,-0.825 0.48214,-1.5 1.07143,-1.5 1.66594,0 4.36365,-3.10148 3.34075,-3.84075 -0.5017,-0.36259 -1.6924,-2.34675 -2.646,-4.40925 l -1.73382,-3.75 2.73382,0.0153 c 2.13247,0.012 2.40387,0.22855 1.23382,0.98469 -1,0.64625 -1.08333,0.97448 -0.25,0.98469 0.6875,0.008 1.25,0.71687 1.25,1.57433 0,0.85746 0.45,1.2809 1,0.94098 0.55,-0.33992 1,-1.49148 1,-2.55902 0,-1.06754 0.49814,-1.94098 1.10699,-1.94098 0.60884,0 0.85877,0.64685 0.55538,1.43745 -0.30338,0.7906 -1.02479,3.19475 -1.60313,5.34255 C 272.45822,213.72574 267,218.92166 267,214.5 Z m 11.8,0.3 c 1.5226,-1.5226 1.58673,-8.8 0.0776,-8.8 -0.77551,0 -0.73766,-0.46364 0.12244,-1.5 2.19574,-2.6457 3,-1.62696 3,3.8 0,2.915 0.54,5.84 1.2,6.5 0.93333,0.93333 0.44444,1.2 -2.2,1.2 -2.64444,0 -3.13333,-0.26667 -2.2,-1.2 z m 20.7,-0.933 c -2.84962,-2.86975 -2.87634,-14.38743 -0.0382,-16.46273 2.81793,-2.06053 3.498,-1.72332 2.1941,1.08793 -0.63575,1.37071 -1.49341,2.49571 -1.90591,2.5 -0.4125,0.004 -0.75,2.05162 -0.75,4.54961 0,3.15957 0.60868,5.19516 2,6.68856 3.50307,3.76011 2.11378,5.27594 -1.5,1.63663 z m 48.5,1.32156 c 0,-0.44629 0.9,-1.77747 2,-2.95819 1.39132,-1.4934 2,-3.52899 2,-6.68856 0,-2.49799 -0.3375,-4.54532 -0.75,-4.54961 -0.4125,-0.004 -1.27016,-1.12929 -1.90591,-2.5 -1.3039,-2.81125 -0.62383,-3.14846 2.1941,-1.08793 1.55038,1.13366 1.92444,2.66379 1.94113,7.94047 0.0173,5.46897 -0.33987,6.87248 -2.18751,8.59573 -2.3582,2.19944 -3.29181,2.55342 -3.29181,1.24809 z m -27.32814,-2.18542 c 0.64452,-0.68577 0.93387,-1.86702 0.64301,-2.625 -0.29087,-0.75797 6e-4,-1.37814 0.64769,-1.37814 1.68548,0 0.83173,4.2544 -0.96256,4.79667 -1.16234,0.35128 -1.2362,0.17265 -0.32814,-0.79353 z M 341.8,212.8 c 1.5226,-1.5226 1.58673,-8.8 0.0776,-8.8 -0.77551,0 -0.73766,-0.46364 0.12244,-1.5 2.19574,-2.6457 3,-1.62696 3,3.8 0,2.915 0.54,5.84 1.2,6.5 0.93333,0.93333 0.44444,1.2 -2.2,1.2 -2.64444,0 -3.13333,-0.26667 -2.2,-1.2 z m -35.3,-3.62899 c 1.1,-0.96935 2.56485,-2.75203 3.25522,-3.96152 1.05838,-1.85422 0.97998,-2.48108 -0.5,-3.99754 C 304.82464,196.67216 304.56987,196 307.27973,196 c 1.93872,0 2.79944,0.75425 3.70879,3.25 l 1.18417,3.25 1.59508,-3.25 c 0.98285,-2.00256 2.3401,-3.25 3.5361,-3.25 1.70306,0 1.77276,0.21287 0.56857,1.73634 -0.75484,0.95498 -2.21984,2.44763 -3.25556,3.317 -1.63076,1.36884 -1.71159,1.90117 -0.60318,3.97226 0.70397,1.31537 2.22637,3.18275 3.38312,4.14973 l 2.10318,1.75813 -2.65217,0.0333 c -2.09562,0.0263 -2.88531,-0.6355 -3.76313,-3.1536 -1.20434,-3.45477 -3.05317,-2.88175 -3.34842,1.03779 -0.12064,1.60154 -0.80831,2.1406 -2.69908,2.11581 -2.51342,-0.033 -2.51845,-0.0498 -0.5372,-1.79572 z M 327.24153,208.75 c 0.69216,-1.2375 1.54385,-2.475 1.89265,-2.75 0.3488,-0.275 1.2488,-2.32655 2,-4.559 1.66385,-4.94469 3.10726,-5.44819 4.14441,-1.44568 0.42823,1.65257 1.21573,3.00468 1.75,3.00468 0.53428,0 0.97418,0.5625 0.97757,1.25 0.003,0.6875 0.6517,2.4875 1.4407,4 1.41244,2.70765 1.38833,2.75 -1.56518,2.75 -1.64984,0 -2.7467,-0.40939 -2.43745,-0.90976 C 336.40015,208.54352 334.88021,206 333,206 c -1.88021,0 -3.40015,2.54352 -2.44423,4.09024 0.30925,0.50037 -0.59311,0.90976 -2.00523,0.90976 -2.36879,0 -2.4701,-0.17412 -1.30901,-2.25 z m 6.99518,-6.29205 c -0.54144,-2.83235 -0.50852,-2.83685 -2.13644,0.29205 -1.01659,1.95391 -0.92107,2.25 0.72587,2.25 1.49209,0 1.79289,-0.54208 1.41057,-2.54205 z M 253,206.5 c 0,-1.925 0.45,-3.5 1,-3.5 0.55,0 1,1.575 1,3.5 0,1.925 -0.45,3.5 -1,3.5 -0.55,0 -1,-1.575 -1,-3.5 z m 31,1 c 0,-1.13333 1.22222,-1.5 5,-1.5 3.77778,0 5,0.36667 5,1.5 0,1.13333 -1.22222,1.5 -5,1.5 -3.77778,0 -5,-0.36667 -5,-1.5 z m 0,-3.5 c 0,-0.55 2.25,-1 5,-1 2.75,0 5,0.45 5,1 0,0.55 -2.25,1 -5,1 -2.75,0 -5,-0.45 -5,-1 z m -31,-11.5 c 0,-1.925 0.45,-3.5 1,-3.5 0.55,0 1,1.575 1,3.5 0,1.925 -0.45,3.5 -1,3.5 -0.55,0 -1,-1.575 -1,-3.5 z m 0,-14 c 0,-1.925 0.45,-3.5 1,-3.5 0.55,0 1,1.575 1,3.5 0,1.925 -0.45,3.5 -1,3.5 -0.55,0 -1,-1.575 -1,-3.5 z m 0,-14 c 0,-1.925 0.45,-3.5 1,-3.5 0.55,0 1,1.575 1,3.5 0,1.925 -0.45,3.5 -1,3.5 -0.55,0 -1,-1.575 -1,-3.5 z m 0,-14 c 0,-1.925 0.45,-3.5 1,-3.5 0.55,0 1,1.575 1,3.5 0,1.925 -0.45,3.5 -1,3.5 -0.55,0 -1,-1.575 -1,-3.5 z m 0,-14 c 0,-1.925 0.45,-3.5 1,-3.5 0.55,0 1,1.575 1,3.5 0,1.925 -0.45,3.5 -1,3.5 -0.55,0 -1,-1.575 -1,-3.5 z m 0,-14 c 0,-1.925 0.45,-3.5 1,-3.5 0.55,0 1,1.575 1,3.5 0,1.925 -0.45,3.5 -1,3.5 -0.55,0 -1,-1.575 -1,-3.5 z m 103,-2.10564 c 0,-0.33311 1.125,-1.94263 2.5,-3.57673 1.375,-1.63409 2.5,-3.585 2.5,-4.33534 0,-2.04253 -1.89387,-2.81526 -3.5438,-1.44594 -1.74664,1.44958 -1.96646,-0.12609 -0.2562,-1.83635 1.91534,-1.91534 4.78701,-1.39266 5.76884,1.05 0.69292,1.7239 0.91921,1.84081 0.96777,0.5 0.0349,-0.9625 0.44784,-1.75 0.91771,-1.75 0.46988,0 1.53652,-2.1375 2.37031,-4.75 1.77974,-5.576411 2.83163,-5.971819 3.99039,-1.5 0.46319,1.7875 1.2793,3.25 1.81357,3.25 0.53428,0 0.97418,0.5625 0.97757,1.25 0.003,0.6875 0.6517,2.4875 1.4407,4 1.41244,2.70765 1.38833,2.75 -1.56518,2.75 -1.64984,0 -2.7467,-0.40939 -2.43745,-0.90976 C 372.40015,111.54352 370.88021,109 369,109 c -1.88021,0 -3.40015,2.54352 -2.44423,4.09024 0.30925,0.50037 -0.47679,0.9239 -1.74675,0.94118 -1.31474,0.0179 -3.13481,1.16352 -4.22677,2.6605 -1.91604,2.62673 -1.91581,2.62857 0.25,2.0622 1.46481,-0.38306 2.16775,-0.11083 2.16775,0.8395 0,0.94062 -1.15911,1.40638 -3.5,1.40638 -1.925,0 -3.5,-0.27254 -3.5,-0.60564 z m 14.23671,-14.93641 c -0.54144,-2.83235 -0.50852,-2.83685 -2.13644,0.29205 -1.01659,1.95391 -0.92107,2.25 0.72587,2.25 1.49209,0 1.79289,-0.54208 1.41057,-2.54205 z M 377,120.39436 c 0,-0.33311 1.125,-1.94263 2.5,-3.57673 1.375,-1.63409 2.5,-3.585 2.5,-4.33534 0,-2.11492 -1.91571,-2.79635 -3.70643,-1.31838 -1.36324,1.12515 -1.54427,1.11055 -1.14667,-0.0925 0.689,-2.08472 3.3336,-3.48477 5.21718,-2.76197 2.30989,0.88639 2.02995,4.91989 -0.57096,8.2264 l -2.20687,2.80559 2.20687,-0.57711 C 383.2964,118.37123 384,118.63562 384,119.59362 384,120.53424 382.84089,121 380.5,121 c -1.925,0 -3.5,-0.27254 -3.5,-0.60564 z M 307.8,118.8 c 1.5226,-1.5226 1.58673,-8.8 0.0776,-8.8 -0.77551,0 -0.73766,-0.46364 0.12244,-1.5 2.19574,-2.6457 3,-1.62696 3,3.8 0,2.915 0.54,5.84 1.2,6.5 0.93333,0.93333 0.44444,1.2 -2.2,1.2 -2.64444,0 -3.13333,-0.26667 -2.2,-1.2 z m 20,0 c 1.5226,-1.5226 1.58673,-8.8 0.0776,-8.8 -0.77551,0 -0.73766,-0.46364 0.12244,-1.5 2.19574,-2.6457 3,-1.62696 3,3.8 0,2.915 0.54,5.84 1.2,6.5 0.93333,0.93333 0.44444,1.2 -2.2,1.2 -2.64444,0 -3.13333,-0.26667 -2.2,-1.2 z m 81.2,0.19903 c 0,-0.67966 0.80307,-0.87892 2.00493,-0.49747 2.81209,0.89253 3.9515,-2.32903 1.46642,-4.14617 -1.79931,-1.31569 -1.79675,-1.39736 0.0875,-2.78807 1.51989,-1.12177 1.67906,-1.6985 0.73351,-2.65762 -0.95237,-0.96603 -1.568,-0.92741 -2.91262,0.18268 -1.4777,1.21996 -1.63971,1.20765 -1.21526,-0.0924 0.70462,-2.15816 5.6899,-2.54299 6.47397,-0.49975 0.3449,0.8988 0.14959,2.11169 -0.43402,2.6953 -0.74815,0.74815 -0.71573,1.61416 0.10992,2.93624 0.85631,1.37116 0.87713,2.34453 0.0775,3.62167 C 414.15007,119.73671 409,120.7403 409,118.99903 Z M 296,117.5 c 0,-0.825 0.48214,-1.5 1.07143,-1.5 1.66594,0 4.36365,-3.10148 3.34075,-3.84075 -0.5017,-0.36259 -1.6924,-2.34675 -2.646,-4.40925 l -1.73382,-3.75 2.73382,0.0153 c 2.13247,0.0119 2.40387,0.22855 1.23382,0.98469 -1,0.64625 -1.08333,0.97448 -0.25,0.98469 0.6875,0.008 1.25,0.71687 1.25,1.57433 0,0.85746 0.45,1.2809 1,0.94098 0.55,-0.33992 1,-1.49148 1,-2.55902 0,-1.06754 0.49814,-1.94098 1.10699,-1.94098 0.60884,0 0.85877,0.64685 0.55538,1.43745 -0.30338,0.7906 -1.02479,3.19475 -1.60313,5.34255 C 301.45822,116.72574 296,121.92166 296,117.5 Z m 49,0 c 0,-0.825 0.48214,-1.5 1.07143,-1.5 1.66594,0 4.36365,-3.10148 3.34075,-3.84075 -0.5017,-0.36259 -1.6924,-2.34675 -2.646,-4.40925 l -1.73382,-3.75 2.73382,0.0153 c 2.13247,0.0119 2.40387,0.22855 1.23382,0.98469 -1,0.64625 -1.08333,0.97448 -0.25,0.98469 0.6875,0.008 1.25,0.71687 1.25,1.57433 0,0.85746 0.45,1.2809 1,0.94098 0.55,-0.33992 1,-1.49148 1,-2.55902 0,-1.06754 0.49814,-1.94098 1.10699,-1.94098 0.60884,0 0.85877,0.64685 0.55538,1.43745 -0.30338,0.7906 -1.02479,3.19475 -1.60313,5.34255 C 350.45822,116.72574 345,121.92166 345,117.5 Z m 55,0 c 0,-0.825 0.48214,-1.5 1.07143,-1.5 1.66594,0 4.36365,-3.10148 3.34075,-3.84075 -0.5017,-0.36259 -1.6924,-2.34675 -2.646,-4.40925 l -1.73382,-3.75 2.73382,0.0153 c 2.13247,0.0119 2.40387,0.22855 1.23382,0.98469 -1,0.64625 -1.08333,0.97448 -0.25,0.98469 0.6875,0.008 1.25,0.71687 1.25,1.57433 0,0.85746 0.45,1.2809 1,0.94098 0.55,-0.33992 1,-1.49148 1,-2.55902 0,-1.06754 0.49814,-1.94098 1.10699,-1.94098 0.60884,0 0.85877,0.64685 0.55538,1.43745 -0.30338,0.7906 -1.02479,3.19475 -1.60313,5.34255 C 405.45822,116.72574 400,121.92166 400,117.5 Z m 32,0.49903 c 0,-0.67966 0.80307,-0.87892 2.00493,-0.49747 2.81209,0.89253 3.9515,-2.32903 1.46642,-4.14617 -1.79931,-1.31569 -1.79675,-1.39736 0.0875,-2.78807 1.51989,-1.12177 1.67906,-1.6985 0.73351,-2.65762 -0.95237,-0.96603 -1.568,-0.92741 -2.91262,0.18268 -1.4777,1.21996 -1.63971,1.20765 -1.21526,-0.0924 0.70462,-2.15816 5.6899,-2.54299 6.47397,-0.49975 0.3449,0.8988 0.14959,2.11169 -0.43402,2.6953 -0.74815,0.74815 -0.71573,1.61416 0.10992,2.93624 0.85631,1.37116 0.87713,2.34453 0.0775,3.62167 C 437.15007,118.73671 432,119.7403 432,117.99903 Z m -182.50417,-1.37842 c -0.98935,-0.72343 -1.38818,-1.56911 -0.88629,-1.87929 0.50188,-0.31018 1.72198,0.0279 2.71133,0.75135 0.98935,0.72343 1.38818,1.56911 0.88629,1.8793 -0.50188,0.31018 -1.72198,-0.0279 -2.71133,-0.75136 z M 269.5,112.17101 c 1.1,-0.96935 2.56485,-2.75203 3.25522,-3.96152 1.05838,-1.85422 0.97998,-2.48108 -0.5,-3.99754 C 267.82464,99.672161 267.56987,99 270.27973,99 c 1.93872,0 2.79944,0.754248 3.70879,3.25 l 1.18417,3.25 1.59508,-3.25 c 0.98285,-2.00256 2.3401,-3.25 3.5361,-3.25 1.70306,0 1.77276,0.212871 0.56857,1.73634 -0.75484,0.95498 -2.21984,2.44763 -3.25556,3.317 -1.63076,1.36884 -1.71159,1.90117 -0.60318,3.97226 0.70397,1.31537 2.22637,3.18275 3.38312,4.14973 l 2.10318,1.75813 -2.65217,0.0333 c -2.09562,0.0263 -2.88531,-0.6355 -3.76313,-3.1536 -1.20434,-3.45477 -3.05317,-2.88175 -3.34842,1.03779 -0.12064,1.60154 -0.80831,2.1406 -2.69908,2.11581 -2.51342,-0.033 -2.51845,-0.0498 -0.5372,-1.79572 z M 314.24153,111.75 c 0.69216,-1.2375 1.54385,-2.475 1.89265,-2.75 0.3488,-0.275 1.2488,-2.32655 2,-4.559 1.66385,-4.944688 3.10726,-5.44819 4.14441,-1.44568 0.42823,1.65257 1.21573,3.00468 1.75,3.00468 0.53428,0 0.97418,0.5625 0.97757,1.25 0.003,0.6875 0.6517,2.4875 1.4407,4 1.41244,2.70765 1.38833,2.75 -1.56518,2.75 -1.64984,0 -2.7467,-0.40939 -2.43745,-0.90976 C 323.40015,111.54352 321.88021,109 320,109 c -1.88021,0 -3.40015,2.54352 -2.44423,4.09024 0.30925,0.50037 -0.59311,0.90976 -2.00523,0.90976 -2.36879,0 -2.4701,-0.17412 -1.30901,-2.25 z m 6.99518,-6.29205 c -0.54144,-2.83235 -0.50852,-2.83685 -2.13644,0.29205 -1.01659,1.95391 -0.92107,2.25 0.72587,2.25 1.49209,0 1.79289,-0.54208 1.41057,-2.54205 z m 97.00482,6.29205 c 0.69216,-1.2375 1.54385,-2.475 1.89265,-2.75 0.3488,-0.275 1.2488,-2.32655 2,-4.559 1.66385,-4.944688 3.10726,-5.44819 4.14441,-1.44568 0.42823,1.65257 1.21573,3.00468 1.75,3.00468 0.53428,0 0.97418,0.5625 0.97757,1.25 0.003,0.6875 0.6517,2.4875 1.4407,4 1.41244,2.70765 1.38833,2.75 -1.56518,2.75 -1.64984,0 -2.7467,-0.40939 -2.43745,-0.90976 C 427.40015,111.54352 425.88021,109 424,109 c -1.88021,0 -3.40015,2.54352 -2.44423,4.09024 0.30925,0.50037 -0.59311,0.90976 -2.00523,0.90976 -2.36879,0 -2.4701,-0.17412 -1.30901,-2.25 z m 6.99518,-6.29205 c -0.54144,-2.83235 -0.50852,-2.83685 -2.13644,0.29205 -1.01659,1.95391 -0.92107,2.25 0.72587,2.25 1.49209,0 1.79289,-0.54208 1.41057,-2.54205 z M 339,111 c 0,-1.33333 -0.66667,-2 -2,-2 -1.1,0 -2,-0.45 -2,-1 0,-0.55 0.9,-1 2,-1 1.11111,0 2,-0.66667 2,-1.5 0,-0.825 0.45,-1.5 1,-1.5 0.55,0 1,0.675 1,1.5 0,0.825 0.675,1.5 1.5,1.5 0.825,0 1.5,0.45 1.5,1 0,0.55 -0.675,1 -1.5,1 -0.83333,0 -1.5,0.88889 -1.5,2 0,1.1 -0.45,2 -1,2 -0.55,0 -1,-0.9 -1,-2 z m 49,0 c 0,-1.33333 -0.66667,-2 -2,-2 -1.1,0 -2,-0.45 -2,-1 0,-0.55 0.9,-1 2,-1 1.11111,0 2,-0.66667 2,-1.5 0,-0.825 0.45,-1.5 1,-1.5 0.55,0 1,0.675 1,1.5 0,0.825 0.675,1.5 1.5,1.5 0.825,0 1.5,0.45 1.5,1 0,0.55 -0.675,1 -1.5,1 -0.83333,0 -1.5,0.88889 -1.5,2 0,1.1 -0.45,2 -1,2 -0.55,0 -1,-0.9 -1,-2 z m -149.55822,-1.52355 c -1.84672,-1.50946 -2.38342,-2.40963 -1.44178,-2.41825 2.05523,-0.0188 6.49786,3.51607 5.32782,4.2392 -0.51934,0.32097 -2.26805,-0.49846 -3.88604,-1.82095 z M 284,110.5 c 0,-1.13333 1.22222,-1.5 5,-1.5 3.77778,0 5,0.36667 5,1.5 0,1.13333 -1.22222,1.5 -5,1.5 -3.77778,0 -5,-0.36667 -5,-1.5 z m 0,-3.5 c 0,-0.55 2.25,-1 5,-1 2.75,0 5,0.45 5,1 0,0.55 -2.25,1 -5,1 -2.75,0 -5,-0.45 -5,-1 z m -57.25806,-4.83186 c -1.51693,-1.00028 -2.47238,-2.10437 -2.12321,-2.453532 C 225.45005,98.88328 231,101.763 231,103.02568 c 0,1.42336 -1.15038,1.19168 -4.25806,-0.85754 z m -10.99015,-7.009566 c -1.51152,-0.912216 -2.74902,-2.246515 -2.75,-2.96511 -0.001,-0.971688 0.76707,-0.852359 2.99821,0.465607 1.65,0.974679 3,2.350121 3,3.056537 0,0.706415 -0.1125,1.24325 -0.25,1.192966 -0.1375,-0.05028 -1.4867,-0.837784 -2.99821,-1.75 z m -12.02831,-7.969295 c -2.58683,-1.569598 -3.59589,-3.196944 -1.97348,-3.18269 0.4125,0.0036 2.03024,0.850654 3.59497,1.882288 3.56866,2.352831 2.08027,3.546494 -1.62149,1.300402 z m -12.60951,-8.068425 c -1.31232,-1.009072 -1.96112,-2.097285 -1.44179,-2.418252 0.51934,-0.320968 2.26805,0.498458 3.88604,1.820947 3.48682,2.850024 1.20928,3.40659 -2.44425,0.597305 z M 180.25,72.266608 C 177.97701,70.740622 177.25191,69 178.88922,69 c 0.48906,0 1.91211,0.828296 3.16233,1.840657 2.81817,2.282022 1.28324,3.496945 -1.80155,1.425951 z M 56,65.999035 c 0,-0.679664 0.803071,-0.878926 2.004926,-0.497472 2.812098,0.892526 3.951505,-2.329035 1.466424,-4.146171 -1.799314,-1.31569 -1.79675,-1.397358 0.08752,-2.788071 1.519885,-1.121774 1.679065,-1.698504 0.733512,-2.657619 -0.952369,-0.966028 -1.567998,-0.927416 -2.912622,0.18268 C 55.902004,57.31239 55.740859,57.300077 56.170712,56 56.454667,55.141187 57.806555,54.526716 59.333333,54.5625 70.569837,54.825856 72,55.044614 72,56.5 c 0,1.126437 -1.203704,1.5 -4.833333,1.5 -5.64621,0 -6.476518,0.530987 -4.865106,3.111267 0.867036,1.388346 0.891197,2.363043 0.09028,3.642189 C 61.150067,66.736706 56,67.740299 56,65.999035 Z m 111.66442,-1.960226 c -1.65249,-1.057722 -2.39443,-2.08764 -1.77825,-2.468461 C 167.05595,60.847387 172,63.713839 172,65.11501 c 0,1.266719 -1.10294,0.992941 -4.33558,-1.076201 z M 45,63.5 c 0,-0.825 0.482143,-1.5 1.071429,-1.5 1.665938,0 4.363656,-3.101477 3.34075,-3.840751 C 48.910481,57.796662 47.71978,55.8125 46.766179,53.75 L 45.032357,50 47.766179,50.01531 C 49.898652,50.027257 50.170051,50.243855 49,51 c -1,0.64625 -1.083333,0.974479 -0.25,0.984687 0.6875,0.0084 1.25,0.716871 1.25,1.57433 0,0.857459 0.45,1.280902 1,0.940983 0.55,-0.339919 1,-1.491476 1,-2.559017 C 52,50.873442 52.498145,50 53.106989,50 c 0.608844,0 0.858767,0.646854 0.555386,1.437454 -0.303382,0.7906 -1.024793,3.194746 -1.603135,5.342547 C 50.458219,62.725738 45,67.921655 45,63.5 Z M 77.5,62.867002 C 74.650384,59.99725 74.623664,48.47957 77.461808,46.404268 c 2.817934,-2.060523 3.498001,-1.723317 2.194107,1.08793 -0.635753,1.370709 -1.493415,2.495709 -1.905915,2.5 -0.4125,0.0043 -0.75,2.051618 -0.75,4.549615 0,3.159565 0.608677,5.195152 2,6.688562 3.503069,3.760103 2.113777,5.275938 -1.5,1.636627 z m 48.5,1.321559 c 0,-0.446291 0.9,-1.777475 2,-2.958186 1.39132,-1.49341 2,-3.528997 2,-6.688562 0,-2.497997 -0.3375,-4.545324 -0.75,-4.549615 -0.4125,-0.0043 -1.27016,-1.129291 -1.90591,-2.5 -1.3039,-2.811247 -0.62383,-3.148453 2.1941,-1.08793 1.55038,1.133666 1.92444,2.663793 1.94113,7.940469 0.0173,5.468978 -0.33987,6.872478 -2.18751,8.595732 C 126.93361,65.139914 126,65.493894 126,64.188561 Z M 98.671855,62.003145 c 0.64452,-0.68577 0.933875,-1.86702 0.643011,-2.625 C 99.024002,58.620165 99.315465,58 99.962562,58 101.64804,58 100.79429,62.254403 99,62.796672 c -1.162336,0.35128 -1.236205,0.172649 -0.328145,-0.793527 z M 119,61.999035 c 0,-0.679664 0.80307,-0.878926 2.00493,-0.497472 2.81209,0.892526 3.9515,-2.329035 1.46642,-4.146171 -1.79931,-1.31569 -1.79675,-1.397358 0.0875,-2.788071 1.51989,-1.121774 1.67906,-1.698504 0.73351,-2.657619 -0.95237,-0.966028 -1.568,-0.927416 -2.91262,0.18268 -1.4777,1.219961 -1.63971,1.207646 -1.21526,-0.09238 0.70462,-2.158159 5.6899,-2.542994 6.47397,-0.499754 0.3449,0.898804 0.14959,2.11169 -0.43402,2.695302 -0.74815,0.74815 -0.71573,1.614158 0.10992,2.936238 0.85631,1.371161 0.87713,2.344533 0.0775,3.62167 C 124.15007,62.736706 119,63.740299 119,61.999035 Z M 84.5,58.171009 c 1.1,-0.969349 2.564847,-2.752031 3.255216,-3.961515 1.058386,-1.854226 0.97998,-2.481082 -0.5,-3.997543 C 82.824638,45.672161 82.569869,45 85.27973,45 c 1.938715,0 2.799438,0.754248 3.70879,3.25 l 1.184171,3.25 1.595081,-3.25 C 92.750619,46.247436 94.107867,45 95.303871,45 c 1.703054,0 1.77276,0.212871 0.568574,1.736338 -0.754845,0.954985 -2.219849,2.447637 -3.255565,3.317003 -1.630756,1.368834 -1.711591,1.901174 -0.60318,3.972258 0.703968,1.315376 2.226372,3.182753 3.383121,4.149727 L 97.5,59.933461 l -2.652175,0.03327 c -2.095612,0.02629 -2.885309,-0.635501 -3.763125,-3.153606 -1.204337,-3.454762 -3.053174,-2.881743 -3.348423,1.037794 -0.120641,1.601542 -0.808308,2.140605 -2.699081,2.115812 C 82.523781,59.933773 82.518746,59.916942 84.5,58.171009 Z M 105.24153,57.75 c 0.69216,-1.2375 1.54385,-2.475 1.89265,-2.75 0.3488,-0.275 1.2488,-2.32655 2,-4.559001 1.66385,-4.944687 3.10726,-5.448189 4.14441,-1.445683 0.42823,1.652576 1.21573,3.004684 1.75,3.004684 0.53428,0 0.97418,0.5625 0.97757,1.25 0.003,0.6875 0.6517,2.4875 1.4407,4 1.41244,2.707647 1.38833,2.75 -1.56518,2.75 -1.64984,0 -2.7467,-0.409391 -2.43745,-0.909758 C 114.40015,57.543523 112.88021,55 111,55 c -1.88021,0 -3.40015,2.543523 -2.44423,4.090242 C 108.86502,59.590609 107.96266,60 106.55054,60 c -2.36879,0 -2.4701,-0.174123 -1.30901,-2.25 z m 6.99518,-6.292051 c -0.54144,-2.83235 -0.50852,-2.836849 -2.13644,0.292051 -1.01659,1.953913 -0.92107,2.25 0.72587,2.25 1.49209,0 1.79289,-0.542084 1.41057,-2.542051 z M 156.5,56.524711 c -1.85628,-1.517683 -2.42814,-2.454371 -1.5,-2.456945 2.05214,-0.0057 5.28934,2.566763 4.85446,3.857607 C 159.65951,58.504041 158.15,57.873743 156.5,56.524711 Z M 62,53 c 0,-0.55 2.25,-1 5,-1 2.75,0 5,0.45 5,1 0,0.55 -2.25,1 -5,1 -2.75,0 -5,-0.45 -5,-1 z m 82.72348,-3.810721 c -2.58683,-1.569598 -3.59589,-3.196944 -1.97348,-3.18269 0.4125,0.0036 2.03024,0.850654 3.59497,1.882288 3.56866,2.352831 2.08027,3.546494 -1.62149,1.300402 z M 139,37 c 0,-9.817127 -0.0428,-10 -2.33956,-10 h -2.33956 l 3.06722,-10.567022 c 1.68697,-5.811862 3.19629,-10.1798002 3.35405,-9.7065294 0.15776,0.4732707 1.34279,5.2284304 2.63342,10.5670214 L 145.72215,27 h -2.36107 C 141.03705,27 141,27.156905 141,37 c 0,6 -0.4,10 -1,10 -0.6,0 -1,-4 -1,-10 z m 32,-11.000965 c 0,-0.679664 0.80307,-0.878926 2.00493,-0.497472 2.81209,0.892526 3.9515,-2.329035 1.46642,-4.146171 -1.79931,-1.31569 -1.79675,-1.397358 0.0875,-2.788071 1.51989,-1.121774 1.67906,-1.698504 0.73351,-2.657619 -0.95237,-0.966028 -1.568,-0.927416 -2.91262,0.18268 -1.4777,1.219961 -1.63971,1.207646 -1.21526,-0.09238 0.70462,-2.158159 5.6899,-2.542994 6.47397,-0.499754 0.3449,0.898804 0.14959,2.11169 -0.43402,2.695302 -0.74815,0.74815 -0.71573,1.614158 0.10992,2.936238 0.85631,1.371161 0.87713,2.344533 0.0775,3.62167 C 176.15007,26.736706 171,27.740299 171,25.999035 Z M 155.24153,22.75 c 0.69216,-1.2375 1.54385,-2.475 1.89265,-2.75 0.3488,-0.275 1.2488,-2.32655 2,-4.559001 1.66385,-4.944687 3.10726,-5.4481891 4.14441,-1.445683 0.42823,1.652576 1.21573,3.004684 1.75,3.004684 0.53428,0 0.97418,0.5625 0.97757,1.25 0.003,0.6875 0.6517,2.4875 1.4407,4 1.41244,2.707647 1.38833,2.75 -1.56518,2.75 -1.64984,0 -2.7467,-0.409391 -2.43745,-0.909758 C 164.40015,22.543523 162.88021,20 161,20 c -1.88021,0 -3.40015,2.543523 -2.44423,4.090242 C 158.86502,24.590609 157.96266,25 156.55054,25 c -2.36879,0 -2.4701,-0.174123 -1.30901,-2.25 z m 6.99518,-6.292051 c -0.54144,-2.83235 -0.50852,-2.836849 -2.13644,0.292051 -1.01659,1.953913 -0.92107,2.25 0.72587,2.25 1.49209,0 1.79289,-0.542084 1.41057,-2.542051 z"
       style="fill:#f2f2f2;fill-opacity:1" />
  </g>
</svg>
